<svg xmlns="http://www.w3.org/2000/svg" width="512" height="512" viewBox="0 0 512 512" version="1.1"><path d="" stroke="none" fill="#34b5dc" fill-rule="evenodd"/><path d="M 255.001 1.070 C 253.626 1.648, 251.444 3.106, 250.152 4.310 C 248.859 5.515, 246.689 8.687, 245.329 11.360 C 243.968 14.033, 240.879 24.188, 238.464 33.928 C 236.048 43.667, 232.654 55.655, 230.920 60.568 C 229.186 65.481, 225.617 73.775, 222.989 79 C 220.361 84.225, 215.544 92.550, 212.285 97.500 C 209.026 102.450, 202.823 110.775, 198.501 116 C 194.179 121.225, 177.987 138.325, 162.519 154 C 144.527 172.232, 132.735 185.022, 129.788 189.500 C 127.255 193.350, 124.442 198.349, 123.538 200.610 L 121.895 204.719 101.198 205.306 C 88.346 205.671, 77.657 206.495, 73 207.479 C 68.875 208.352, 61.872 210.831, 57.437 212.989 C 51.766 215.748, 47.822 218.552, 44.145 222.440 C 41.099 225.661, 37.486 231.002, 35.490 235.234 C 33.605 239.231, 31.383 245.149, 30.551 248.387 C 29.719 251.625, 28.467 258.150, 27.769 262.887 C 26.848 269.136, 26.500 288.789, 26.500 334.500 C 26.500 380.211, 26.848 399.864, 27.769 406.113 C 28.467 410.850, 29.719 417.375, 30.551 420.613 C 31.383 423.851, 33.598 429.753, 35.473 433.730 C 37.348 437.706, 40.978 443.200, 43.540 445.939 C 46.101 448.677, 50.290 452.256, 52.848 453.891 C 55.407 455.527, 60.875 457.982, 65 459.348 C 69.125 460.714, 76.550 462.319, 81.500 462.913 C 86.450 463.508, 101.075 464.003, 114 464.015 C 130.824 464.029, 139.489 464.454, 144.500 465.511 C 148.350 466.323, 154.200 468.316, 157.500 469.940 C 160.800 471.564, 169.350 477.329, 176.500 482.750 C 183.650 488.171, 192.372 494.552, 195.881 496.930 C 199.391 499.307, 205.959 502.985, 210.476 505.102 C 214.994 507.219, 221.572 509.630, 225.095 510.461 C 230.586 511.755, 246.118 511.973, 333.934 511.985 C 436.369 512, 436.369 512, 440.934 509.810 C 443.445 508.605, 448.254 504.880, 451.621 501.532 C 454.987 498.183, 458.928 493.101, 460.379 490.239 C 461.830 487.376, 463.688 482.456, 464.508 479.307 C 465.329 476.157, 466 470.619, 466 467 C 466 463.381, 465.329 457.843, 464.508 454.693 C 463.688 451.544, 461.920 446.802, 460.579 444.157 C 458.142 439.347, 458.142 439.347, 461.321 437.492 C 463.070 436.472, 466.159 434.316, 468.187 432.702 C 470.215 431.087, 473.622 427.232, 475.759 424.133 C 477.896 421.035, 480.603 416.216, 481.775 413.424 C 482.947 410.632, 484.406 405.232, 485.017 401.424 C 485.631 397.600, 485.823 391.813, 485.445 388.500 C 485.070 385.200, 483.932 379.800, 482.917 376.500 C 481.902 373.200, 479.663 368.250, 477.941 365.500 C 476.219 362.750, 472.984 358.613, 470.753 356.307 L 466.695 352.114 471.901 346.417 C 474.765 343.284, 478.169 338.627, 479.466 336.068 C 480.763 333.509, 482.508 328.959, 483.345 325.957 C 484.182 322.956, 485.142 318.250, 485.479 315.500 C 485.816 312.750, 485.621 307.125, 485.046 303 C 484.326 297.833, 482.766 292.983, 480.029 287.407 C 477.573 282.401, 474.193 277.465, 471.169 274.469 L 466.280 269.624 470.978 264.927 C 473.562 262.343, 476.837 258.248, 478.256 255.826 C 479.675 253.405, 481.838 248.516, 483.063 244.962 C 484.726 240.138, 485.307 236.092, 485.355 229 C 485.404 221.924, 484.865 217.703, 483.245 212.458 C 482.048 208.586, 479.334 202.732, 477.213 199.450 C 475.091 196.168, 471.295 191.669, 468.776 189.452 C 466.257 187.235, 461.790 184.244, 458.848 182.805 C 455.907 181.366, 450.830 179.696, 447.566 179.094 C 443.678 178.377, 419.896 177.995, 378.566 177.985 C 329.776 177.974, 314.934 177.685, 313 176.707 C 311.500 175.950, 309.966 173.855, 309.165 171.472 C 308.162 168.490, 307.944 162.640, 308.288 148 C 308.653 132.509, 309.159 127.061, 310.749 121.500 C 311.850 117.650, 313.950 110.450, 315.415 105.501 C 316.881 100.552, 318.594 92.114, 319.224 86.751 C 320.086 79.400, 320.082 74.569, 319.209 67.122 C 318.571 61.689, 316.754 53.388, 315.170 48.675 C 313.586 43.961, 310.356 36.819, 307.991 32.802 C 305.489 28.552, 300.281 22.110, 295.531 17.390 C 289.132 11.031, 285.475 8.341, 278.594 4.932 C 271.601 1.467, 268.568 0.526, 263.659 0.302 C 260.272 0.147, 256.375 0.493, 255.001 1.070 M 262.904 20.282 C 262.026 20.952, 260.604 22.861, 259.744 24.525 C 258.885 26.188, 256.285 34.963, 253.968 44.025 C 251.651 53.086, 248.431 64.100, 246.814 68.500 C 245.197 72.900, 241.803 80.732, 239.273 85.903 C 236.742 91.075, 231.676 99.850, 228.014 105.403 C 224.352 110.957, 217.575 120.225, 212.953 126 C 208.332 131.775, 192.362 148.650, 177.466 163.500 C 161.229 179.687, 148.298 193.474, 145.177 197.926 C 142.315 202.011, 139.304 207.605, 138.486 210.358 C 137.209 214.661, 137 231.600, 137 331.066 L 137 446.770 142.750 447.467 C 145.912 447.851, 151.875 449.286, 156 450.656 C 160.125 452.026, 165.975 454.561, 169 456.290 C 172.025 458.018, 180.960 464.293, 188.856 470.235 C 196.752 476.176, 206.290 482.865, 210.051 485.099 C 213.811 487.334, 220.176 490.363, 224.194 491.831 C 231.500 494.500, 231.500 494.500, 328.500 494.802 C 381.850 494.968, 427.448 494.823, 429.828 494.479 C 432.833 494.045, 435.372 492.756, 438.133 490.261 C 440.321 488.284, 443.176 484.830, 444.478 482.584 C 445.780 480.338, 447.311 475.936, 447.879 472.803 C 448.531 469.209, 448.583 465.084, 448.021 461.629 C 447.531 458.616, 446.369 454.654, 445.439 452.825 C 444.509 450.996, 441.105 446.726, 437.874 443.337 C 434.643 439.947, 432 436.255, 432 435.134 C 432 434.012, 432.508 431.978, 433.130 430.615 C 433.751 429.251, 435.439 427.684, 436.880 427.134 C 438.321 426.583, 442.001 425.440, 445.058 424.594 C 448.115 423.748, 452.560 421.750, 454.935 420.155 C 457.311 418.560, 460.560 415.311, 462.155 412.935 C 463.750 410.560, 465.772 406.151, 466.648 403.137 C 467.717 399.460, 468.090 395.331, 467.783 390.579 C 467.520 386.520, 466.440 381.505, 465.251 378.824 C 464.111 376.253, 461.320 372.133, 459.049 369.669 C 456.779 367.206, 453.356 364.448, 451.443 363.540 C 449.530 362.632, 445.385 361.476, 442.232 360.971 C 438.035 360.299, 435.898 359.361, 434.250 357.471 C 433.012 356.050, 432 353.589, 432 352 C 432 350.411, 433.012 347.950, 434.250 346.529 C 435.898 344.639, 438.035 343.701, 442.232 343.029 C 445.385 342.524, 449.530 341.368, 451.443 340.460 C 453.356 339.552, 456.779 336.794, 459.049 334.331 C 461.320 331.867, 464.111 327.747, 465.251 325.176 C 466.440 322.495, 467.520 317.480, 467.783 313.421 C 468.092 308.642, 467.717 304.539, 466.629 300.797 C 465.743 297.747, 463.551 293.061, 461.759 290.382 C 459.727 287.346, 456.483 284.309, 453.142 282.315 C 449.755 280.293, 445.733 278.861, 442.208 278.420 C 438.361 277.940, 435.915 277.006, 434.316 275.407 C 432.801 273.891, 432 271.913, 432 269.682 C 432 267.332, 432.819 265.454, 434.636 263.636 C 436.174 262.098, 438.390 261, 439.955 261 C 441.430 261, 444.876 260.335, 447.612 259.523 C 450.349 258.710, 454.461 256.441, 456.752 254.481 C 459.253 252.340, 462.231 248.246, 464.208 244.229 C 467.232 238.086, 467.500 236.768, 467.499 228.021 C 467.499 220.407, 467.071 217.574, 465.362 213.878 C 464.187 211.335, 461.518 207.365, 459.431 205.055 C 457.344 202.745, 453.806 199.875, 451.568 198.678 C 447.500 196.500, 447.500 196.500, 358.855 196 C 274.334 195.523, 270.114 195.414, 268.161 193.646 C 267.035 192.627, 265.834 190.522, 265.493 188.969 C 265.116 187.250, 265.473 184.987, 266.406 183.181 C 267.288 181.476, 269.290 179.746, 271.119 179.108 C 272.868 178.499, 278.470 178, 283.569 178 L 292.839 178 291.828 174.339 C 291.219 172.135, 290.988 161.487, 291.247 147.589 C 291.615 127.816, 291.985 123.423, 293.824 117 C 295.005 112.875, 297.149 105.675, 298.589 101 C 300.553 94.625, 301.338 89.493, 301.730 80.469 C 302.169 70.373, 301.916 67.106, 300.159 60.158 C 299.008 55.605, 296.588 48.869, 294.783 45.189 C 292.788 41.124, 288.820 35.675, 284.670 31.300 C 280.649 27.060, 275.736 23.051, 272.724 21.550 C 269.910 20.147, 266.908 19.014, 266.054 19.032 C 265.199 19.049, 263.782 19.612, 262.904 20.282 M 78.043 224.139 C 75.041 224.636, 70.091 226.181, 67.043 227.572 C 63.994 228.963, 59.622 231.938, 57.327 234.183 C 55.032 236.428, 51.975 240.892, 50.535 244.102 C 49.094 247.312, 47.152 253.440, 46.219 257.719 C 44.717 264.612, 44.522 273.379, 44.512 334.500 C 44.501 396.964, 44.668 404.258, 46.276 411.500 C 47.253 415.900, 49.329 422.231, 50.889 425.568 C 52.449 428.906, 55.417 433.280, 57.485 435.288 C 59.553 437.297, 63.155 439.865, 65.488 440.994 C 67.822 442.124, 72.829 443.705, 76.615 444.507 C 81.186 445.475, 89.634 445.971, 101.750 445.983 L 120 446 120 334.500 L 120 223 101.750 223.117 C 91.713 223.181, 81.044 223.641, 78.043 224.139" stroke="none" fill="#3cb4dc" fill-rule="evenodd"/></svg>