<svg width="34" height="34" viewBox="0 0 34 34" fill="none" xmlns="http://www.w3.org/2000/svg">
<path d="M5.66667 2.83333C6.44907 2.83333 7.08333 2.19907 7.08333 1.41667C7.08333 0.634263 6.44907 0 5.66667 0C4.88426 0 4.25 0.634263 4.25 1.41667C4.25 2.19907 4.88426 2.83333 5.66667 2.83333Z" fill="#F1B05B"/>
<path d="M5.66667 9.91732C6.44907 9.91732 7.08333 9.28305 7.08333 8.50065C7.08333 7.71825 6.44907 7.08398 5.66667 7.08398C4.88426 7.08398 4.25 7.71825 4.25 8.50065C4.25 9.28305 4.88426 9.91732 5.66667 9.91732Z" fill="#F1B05B"/>
<path d="M5.66667 16.9993C6.44907 16.9993 7.08333 16.3651 7.08333 15.5827C7.08333 14.8003 6.44907 14.166 5.66667 14.166C4.88426 14.166 4.25 14.8003 4.25 15.5827C4.25 16.3651 4.88426 16.9993 5.66667 16.9993Z" fill="#F1B05B"/>
<path d="M28.4184 7.08398H11.2484C10.513 7.08398 9.91675 7.68019 9.91675 8.41565V8.58565C9.91675 9.32111 10.513 9.91732 11.2484 9.91732H28.4184C29.1539 9.91732 29.7501 9.32111 29.7501 8.58565V8.41565C29.7501 7.68019 29.1539 7.08398 28.4184 7.08398Z" fill="#F1B05B"/>
<path d="M28.4184 14.166H11.2484C10.513 14.166 9.91675 14.7622 9.91675 15.4977V15.6677C9.91675 16.4031 10.513 16.9993 11.2484 16.9993H28.4184C29.1539 16.9993 29.7501 16.4031 29.7501 15.6677V15.4977C29.7501 14.7622 29.1539 14.166 28.4184 14.166Z" fill="#F1B05B"/>
<path d="M28.4184 0H11.2484C10.513 0 9.91675 0.596207 9.91675 1.33167V1.50167C9.91675 2.23713 10.513 2.83333 11.2484 2.83333H28.4184C29.1539 2.83333 29.7501 2.23713 29.7501 1.50167V1.33167C29.7501 0.596207 29.1539 0 28.4184 0Z" fill="#F1B05B"/>
</svg>
