<svg width="26" height="28" viewBox="0 0 26 28" fill="none" xmlns="http://www.w3.org/2000/svg">
<path d="M12.994 0C10.9943 0 8.65721 0.582261 6.74579 2.09614C4.83437 3.61002 3.43694 6.11173 3.43694 9.56915C3.43694 13.2274 5.73386 16.7932 7.92236 19.5278C10.1109 22.2664 12.2993 24.1819 12.2993 24.1819C12.7009 24.5353 13.2992 24.5353 13.7008 24.1819C13.7008 24.1819 15.8893 22.2664 18.0778 19.5278C20.2663 16.7932 22.5632 13.2274 22.5632 9.56915C22.5632 6.10771 21.1658 3.61002 19.2544 2.09614C17.3429 0.582261 14.9938 0 12.994 0ZM12.994 2.12826C14.5802 2.12826 16.4956 2.61415 17.9332 3.75859C19.3788 4.89902 20.4389 6.65383 20.4389 9.56915C20.4389 12.2837 18.5195 15.6488 16.4234 18.1946C14.6445 20.355 13.8172 21.114 13.0021 21.9291C12.2391 21.1421 11.2633 20.2747 9.57678 18.1946C7.4967 15.6327 5.56119 12.2837 5.56119 9.56915C5.56119 6.65383 6.6213 4.89902 8.0629 3.75859C9.50851 2.61415 11.4119 2.12425 12.994 2.12425V2.12826ZM12.994 4.27259C10.0747 4.27259 7.68544 6.66989 7.68544 9.59324C7.68544 12.5126 10.0747 14.9019 12.994 14.9019C15.9174 14.9019 18.3147 12.5126 18.3147 9.59324C18.3094 8.18375 17.7471 6.83349 16.7505 5.83681C15.7538 4.84014 14.4035 4.27788 12.994 4.27259ZM12.994 6.40085C14.7689 6.40085 16.1905 7.81835 16.1905 9.59324C16.1915 10.0125 16.1095 10.4279 15.949 10.8153C15.7886 11.2027 15.5529 11.5544 15.2557 11.8502C14.9584 12.1459 14.6055 12.3798 14.2173 12.5383C13.8291 12.6968 13.4133 12.7768 12.994 12.7736C12.5758 12.7757 12.1613 12.6949 11.7745 12.5358C11.3876 12.3768 11.0362 12.1426 10.7405 11.8468C10.4447 11.5511 10.2105 11.1996 10.0515 10.8128C9.89238 10.426 9.81157 10.0115 9.8137 9.59324C9.81105 9.17429 9.89141 8.75895 10.0501 8.37122C10.2089 7.98349 10.4429 7.63105 10.7385 7.33423C11.0342 7.03742 11.3858 6.80212 11.7729 6.64192C12.1601 6.48171 12.5751 6.39978 12.994 6.40085ZM7.66134 21.5035C7.63844 21.5066 7.61567 21.5107 7.59308 21.5155C5.28813 21.7524 3.54135 22.0978 2.36076 22.6118C1.77047 22.8688 1.2364 23.1178 0.915151 23.8124C0.753302 24.1936 0.746102 24.6227 0.895073 25.0091C1.04365 25.3745 1.29262 25.6195 1.5456 25.8122C2.55753 26.5752 4.00716 26.8763 5.98283 27.1695C7.9585 27.4626 10.396 27.6313 12.994 27.6313C15.5961 27.6313 18.0296 27.4626 20.0053 27.1695C21.985 26.8763 23.4386 26.5752 24.4545 25.8122C24.7407 25.6124 24.9659 25.3372 25.1051 25.0171C25.2524 24.6274 25.2438 24.1959 25.081 23.8124C24.7597 23.1137 24.2297 22.8688 23.6354 22.6078C22.4588 22.0978 20.72 21.7524 18.4151 21.5155C17.0618 21.4031 16.7366 23.3828 18.1942 23.6317C20.0374 23.8205 21.5834 24.1216 22.4749 24.4349C21.8565 24.6597 20.9489 24.8806 19.6921 25.0653C17.8529 25.3384 15.5038 25.507 12.994 25.507C10.4883 25.507 8.1392 25.3384 6.30006 25.0653C5.3519 24.9461 4.41735 24.7364 3.50922 24.4389C4.91176 24.0306 6.35082 23.7603 7.8059 23.6317C9.19128 23.4229 9.00255 21.5155 7.66134 21.5035Z" fill="#F1B05B"/>
</svg>
