<svg width="34" height="34" viewBox="0 0 34 34" fill="none" xmlns="http://www.w3.org/2000/svg">
<path fill-rule="evenodd" clip-rule="evenodd" d="M20.196 0.0294351C19.9146 0.0339105 19.6464 0.149872 19.4504 0.351864C19.2544 0.553856 19.1465 0.825372 19.1505 1.10681V4.27306H15.9672C15.828 4.27278 15.6901 4.30003 15.5615 4.35325C15.4328 4.40646 15.3159 4.48459 15.2176 4.58314C15.1192 4.68169 15.0413 4.79871 14.9884 4.92748C14.9354 5.05624 14.9084 5.19421 14.909 5.33344V9.15631C15.7972 9.13294 17.0298 9.96806 17.0298 9.96806V6.39594H19.9622C20.125 6.43493 20.2946 6.43493 20.4574 6.39594H28.4474C28.6094 6.43459 28.7783 6.43459 28.9404 6.39594H31.8792V16.9997H24.0359C24.6309 17.6096 24.6542 18.3979 24.8285 19.1247H32.9375C33.2193 19.1247 33.4895 19.0127 33.6888 18.8135C33.8881 18.6142 34 18.344 34 18.0622V5.33344C33.9997 5.19419 33.972 5.05635 33.9185 4.92781C33.8649 4.79927 33.7866 4.68253 33.6879 4.58426C33.5893 4.48599 33.4722 4.40812 33.3434 4.35509C33.2147 4.30206 33.0768 4.27491 32.9375 4.27519H29.7585V1.10894C29.7608 0.96654 29.7344 0.825135 29.681 0.693126C29.6276 0.561117 29.5481 0.441198 29.4474 0.340496C29.3467 0.239794 29.2268 0.160364 29.0948 0.106927C28.9628 0.0534908 28.8214 0.027138 28.679 0.0294351C28.3976 0.0339105 28.1294 0.149872 27.9334 0.351864C27.7374 0.553856 27.6295 0.825372 27.6335 1.10681V4.27306H21.2755V1.10894C21.2775 0.966717 21.2509 0.825543 21.1974 0.693782C21.1438 0.562021 21.0643 0.442356 20.9637 0.341882C20.863 0.241407 20.7432 0.162168 20.6113 0.108863C20.4794 0.0555572 20.3382 0.0292702 20.196 0.0315601V0.0294351ZM19.1505 8.51669V10.6374H21.2712V8.51669H19.1505ZM23.392 8.51669V10.6374H25.517V8.51669H23.392ZM27.6377 8.51669V10.6374H29.7585V8.51669H27.6377ZM11.6705 10.6247C8.57594 10.6292 5.60947 11.8608 3.42168 14.0494C1.23389 16.238 0.00337262 19.2049 0 22.2994C0.00337485 25.3936 1.23403 28.3601 3.42194 30.548C5.60985 32.7359 8.57633 33.9666 11.6705 33.9699C14.7651 33.9666 17.732 32.7361 19.9206 30.5483C22.1092 28.3605 23.3408 25.394 23.3452 22.2994C23.3408 19.2045 22.1093 16.2376 19.9208 14.0491C17.7324 11.8606 14.7655 10.6292 11.6705 10.6247ZM11.6705 12.7454C12.9257 12.7435 14.1689 12.9893 15.329 13.4687C16.489 13.9481 17.543 14.6518 18.4306 15.5394C19.3181 16.4269 20.0218 17.4809 20.5012 18.641C20.9807 19.801 21.2265 21.0442 21.2245 22.2994C21.2265 23.5544 20.9806 24.7975 20.5012 25.9573C20.0217 27.1171 19.3179 28.1708 18.4303 29.058C17.5427 29.9452 16.4887 30.6485 15.3287 31.1275C14.1686 31.6064 12.9255 31.8517 11.6705 31.8492C10.4157 31.8517 9.17276 31.6064 8.01299 31.1274C6.85322 30.6484 5.79946 29.945 4.91219 29.0578C4.02491 28.1705 3.32157 27.1167 2.84255 25.957C2.36352 24.7972 2.11823 23.5542 2.12075 22.2994C2.11823 21.0444 2.36349 19.8013 2.84247 18.6413C3.32144 17.4813 4.02471 16.4272 4.91193 15.5396C5.79915 14.652 6.85288 13.9483 8.01267 13.4688C9.17246 12.9893 10.4155 12.7435 11.6705 12.7454ZM23.392 12.7582V14.8789H25.517V12.7582H23.392ZM27.6377 12.7582V14.8789H29.7585V12.7582H27.6377ZM11.6578 14.1564C11.5182 14.1587 11.3805 14.1883 11.2524 14.2438C11.1244 14.2992 11.0085 14.3794 10.9114 14.4796C10.8143 14.5799 10.7379 14.6983 10.6866 14.828C10.6353 14.9578 10.61 15.0964 10.6123 15.2359V22.2994C10.6123 22.5812 10.7242 22.8515 10.9234 23.0507C11.1227 23.25 11.393 23.3619 11.6748 23.3619H18.0752C18.357 23.3619 18.6273 23.25 18.8266 23.0507C19.0258 22.8515 19.1377 22.5812 19.1377 22.2994C19.1377 22.0176 19.0258 21.7474 18.8266 21.5481C18.6273 21.3489 18.357 21.2369 18.0752 21.2369H12.7373V15.2359C12.7395 15.0935 12.7132 14.9521 12.6598 14.8201C12.6063 14.6881 12.5269 14.5682 12.4262 14.4675C12.3255 14.3668 12.2056 14.2874 12.0736 14.2339C11.9416 14.1805 11.8001 14.1541 11.6578 14.1564Z" fill="#F1B05B"/>
</svg>
