<svg width="30" height="28" viewBox="0 0 30 28" fill="none" xmlns="http://www.w3.org/2000/svg">
<path d="M15.1069 15.323C19.347 15.323 22.7474 11.8805 22.7474 7.68247C22.7474 3.4844 19.347 0 15.1069 0C10.8669 0 7.46645 3.44242 7.46645 7.64049C7.46645 11.8386 10.8669 15.323 15.1069 15.323ZM15.1069 2.01507C18.2135 2.01507 20.7323 4.53392 20.7323 7.64049C20.7323 10.7471 18.2135 13.2659 15.1069 13.2659C12.0004 13.2659 9.48152 10.789 9.48152 7.68247C9.48152 4.5759 12.0004 2.01507 15.1069 2.01507ZM1.84103 27.2875H28.4568C29.0025 27.2875 29.4643 26.8257 29.4643 26.2799C29.4643 20.9903 25.1403 16.6663 19.8508 16.6663H10.4471C5.15751 16.6663 0.833496 20.9903 0.833496 26.2799C0.833496 26.8257 1.29528 27.2875 1.84103 27.2875ZM10.4471 18.6814H19.8508C23.713 18.6814 26.8615 21.5361 27.3653 25.2724H2.93253C3.4363 21.5361 6.58485 18.6814 10.4471 18.6814Z" fill="#F1B05B"/>
</svg>
