<?xml version="1.0" standalone="no"?>
<!DOCTYPE svg PUBLIC "-//W3C//DTD SVG 20010904//EN"
 "http://www.w3.org/TR/2001/REC-SVG-20010904/DTD/svg10.dtd">
<svg version="1.0" xmlns="http://www.w3.org/2000/svg"
 width="3300.000000pt" height="1812.000000pt" viewBox="0 0 3300.000000 1812.000000"
 preserveAspectRatio="xMidYMid meet">

<g transform="translate(0.000000,1812.000000) scale(0.100000,-0.100000)"
fill="#000000" stroke="none">
<path d="M6005 16941 c-36 -22 -61 -49 -69 -76 -3 -11 -12 -121 -21 -245 -26
-375 -46 -491 -105 -617 -33 -71 -77 -133 -94 -133 -23 0 -134 59 -214 113
-78 54 -86 57 -143 57 -69 0 -104 -15 -147 -64 -37 -42 -37 -43 -57 -187 -17
-125 -51 -257 -91 -347 -27 -61 -95 -172 -105 -172 -4 0 -14 12 -24 26 -19 29
-87 63 -126 64 -42 0 -167 -70 -232 -129 -154 -143 -410 -550 -677 -1076 -70
-137 -143 -287 -164 -333 l-36 -82 -53 35 c-28 19 -62 35 -75 35 -31 0 -79
-26 -92 -49 -19 -37 -9 -392 25 -847 8 -111 18 -281 21 -377 l7 -177 -50 -53
c-56 -59 -78 -112 -70 -164 4 -19 39 -92 78 -162 74 -129 279 -512 279 -521 0
-3 -73 -5 -163 -6 -248 -1 -355 -38 -482 -168 -174 -177 -219 -394 -160 -771
68 -436 169 -778 330 -1112 266 -552 604 -903 990 -1028 l70 -23 6 -174 c10
-267 55 -450 170 -685 209 -427 562 -774 1041 -1023 226 -117 456 -207 698
-274 74 -21 146 -41 159 -45 23 -7 23 -8 -20 -33 -94 -55 -298 -217 -408 -323
-127 -122 -215 -234 -268 -339 l-35 -69 -37 84 c-141 318 -443 655 -802 894
-125 84 -367 207 -510 259 -406 149 -846 170 -1224 61 -276 -80 -499 -215
-724 -437 -510 -506 -816 -1176 -860 -1888 -28 -441 56 -859 251 -1239 360
-704 1032 -1201 1857 -1375 398 -84 878 -108 1134 -57 55 11 145 35 202 52
l104 32 27 -32 c58 -69 254 -161 344 -161 32 0 44 -6 68 -36 42 -50 126 -112
200 -146 112 -51 322 -88 402 -70 30 7 41 4 83 -26 82 -59 137 -75 277 -79
188 -7 418 33 708 123 125 39 209 68 473 166 l56 21 59 -36 c33 -19 95 -48
139 -63 70 -24 96 -28 205 -28 102 -1 140 3 204 22 104 30 239 96 353 172 90
60 224 188 245 235 6 14 14 25 18 25 4 0 42 -20 83 -45 160 -96 342 -141 537
-132 233 11 413 86 581 244 l66 63 239 0 c556 0 852 50 1139 193 93 46 145 84
165 122 10 19 54 45 164 99 83 40 170 89 194 108 57 46 109 121 128 185 15 51
16 52 82 78 173 68 262 193 250 350 -10 114 -60 191 -172 265 -78 50 -176 86
-276 100 -41 6 -75 12 -76 13 -2 2 9 27 24 57 25 51 27 62 33 274 23 704 30
885 35 924 l5 42 83 0 c213 0 474 85 562 183 109 120 119 282 28 438 -36 61
-38 68 -35 139 3 96 -20 207 -61 290 -28 57 -32 76 -34 155 -3 161 -56 301
-156 412 l-53 58 5 135 c3 74 8 128 12 120 3 -8 69 -171 147 -362 77 -192 161
-394 188 -450 62 -133 284 -548 379 -708 252 -423 450 -590 636 -536 215 62
368 397 493 1076 45 246 45 244 75 194 83 -138 138 -239 258 -469 74 -143 153
-286 175 -319 60 -88 149 -171 225 -208 62 -30 74 -33 162 -33 110 1 174 22
255 83 77 59 100 100 151 277 62 217 80 312 98 502 22 226 58 498 121 922 30
201 55 369 55 375 0 6 3 6 9 1 14 -16 58 -165 76 -258 14 -77 14 -91 0 -152
-19 -83 -19 -158 -1 -193 8 -15 41 -54 74 -86 51 -50 61 -65 72 -114 20 -91
68 -238 122 -369 l50 -122 -33 -66 -32 -66 27 -82 c42 -124 157 -357 196 -396
39 -39 86 -61 129 -61 30 0 447 103 559 139 84 26 130 59 198 143 102 126 125
192 89 256 -7 15 -37 76 -65 135 -61 127 -123 198 -190 218 -39 12 -45 18 -72
77 -15 36 -27 66 -25 68 2 2 68 -46 148 -108 300 -231 634 -423 814 -468 276
-69 505 -63 643 16 36 22 49 38 91 125 l48 101 49 -88 c84 -151 169 -219 289
-231 73 -8 154 10 298 64 113 42 127 45 236 48 136 3 152 8 426 117 110 44
367 145 570 225 204 79 375 147 381 149 7 3 22 -15 34 -40 52 -108 168 -162
398 -186 87 -9 101 -8 191 16 249 68 435 145 474 196 65 84 101 210 100 348 0
113 -20 198 -68 297 -44 88 -84 124 -172 153 -37 12 -73 27 -80 34 -16 15
-164 564 -163 604 1 11 146 -214 241 -373 50 -82 117 -204 149 -271 33 -66 68
-128 78 -137 10 -9 57 -34 104 -56 69 -32 108 -60 203 -146 305 -275 552 -421
761 -449 109 -15 239 29 318 107 118 119 147 316 106 730 l-23 233 37 104 c22
62 40 133 43 173 5 55 8 65 20 56 7 -7 20 -37 29 -68 40 -139 88 -185 223
-215 41 -10 83 -22 93 -27 11 -6 84 -63 162 -128 408 -336 796 -588 1004 -651
114 -35 197 -27 304 29 124 65 261 159 483 332 110 85 234 180 275 211 98 73
123 101 156 173 23 48 29 79 33 155 l4 95 23 -149 c37 -236 80 -399 118 -449
71 -93 207 -142 391 -141 89 0 121 4 166 22 126 50 283 182 332 279 41 80 42
119 9 204 -75 187 -176 555 -233 845 l-21 112 21 57 c12 31 24 84 28 116 3 33
9 61 13 64 26 16 240 46 420 59 118 9 257 23 308 32 52 9 95 14 96 12 1 -1 25
-35 54 -74 29 -39 61 -91 71 -115 37 -83 121 -569 121 -696 0 -20 -12 -61 -28
-92 -56 -114 -38 -300 40 -417 38 -57 105 -94 228 -125 278 -73 582 0 777 184
91 85 100 124 82 325 -15 155 -24 175 -104 228 -30 20 -58 47 -60 58 -37 159
-145 705 -145 733 0 21 9 67 20 101 35 111 24 149 -75 252 l-43 45 -18 127
-18 127 32 65 c43 86 43 135 0 202 -73 114 -76 129 -84 359 l-7 210 31 110
c38 134 52 217 52 316 0 72 -1 76 -33 107 -48 46 -119 70 -252 83 -215 22
-501 -30 -702 -127 -103 -51 -175 -108 -203 -165 -47 -92 -13 -275 81 -430 54
-90 92 -198 119 -334 l20 -107 -31 -35 c-35 -41 -48 -71 -58 -133 l-6 -44
-135 -22 c-152 -24 -403 -73 -558 -110 -57 -13 -109 -24 -116 -24 -7 0 -23 23
-37 52 -13 29 -40 73 -60 98 -34 43 -37 54 -57 190 -38 255 -38 252 3 365 54
148 60 185 47 271 -19 123 -87 230 -174 275 -126 65 -358 65 -611 -1 -114 -29
-234 -99 -406 -238 -35 -28 -39 -130 -11 -291 11 -68 19 -125 17 -128 -3 -2
-51 32 -108 77 -246 193 -469 321 -628 361 -116 29 -234 24 -307 -14 -120 -61
-494 -402 -666 -607 -98 -116 -209 -271 -273 -380 -49 -84 -83 -117 -149 -144
-103 -43 -145 -100 -185 -252 -31 -119 -53 -175 -78 -196 -15 -12 -15 3 -10
152 4 91 13 194 21 230 22 95 20 234 -4 304 -10 31 -24 93 -30 138 -14 103
-24 120 -105 196 -133 125 -328 192 -555 192 -215 -1 -313 -32 -399 -125 -56
-61 -81 -119 -90 -215 -11 -103 -2 -153 50 -280 41 -102 42 -109 50 -260 10
-181 26 -306 79 -605 56 -316 90 -565 77 -565 -9 0 -151 206 -300 433 -125
191 -137 214 -152 285 -38 176 -45 186 -168 261 -100 61 -117 78 -253 266
-293 404 -481 575 -693 630 l-64 16 -63 -31 c-79 -39 -143 -108 -195 -213
l-40 -78 -52 46 c-59 52 -165 106 -247 126 -31 8 -103 13 -165 13 -99 -1 -132
-6 -330 -56 -121 -31 -452 -108 -735 -172 -660 -150 -743 -170 -828 -205 -177
-73 -293 -191 -317 -323 -4 -21 -9 -38 -12 -38 -3 0 -32 25 -66 55 -89 81
-155 109 -337 144 -437 85 -704 89 -1196 20 -264 -36 -512 -111 -622 -186 -39
-27 -124 -113 -137 -140 -1 -2 -38 13 -82 31 -105 44 -248 90 -345 110 -112
23 -291 21 -346 -4 -64 -29 -108 -66 -145 -123 -48 -72 -61 -119 -63 -217 -1
-47 -5 -111 -9 -142 -7 -48 -4 -63 14 -98 18 -34 24 -75 36 -243 21 -291 39
-829 30 -921 l-7 -79 -29 47 c-16 25 -58 110 -94 189 -77 167 -134 255 -219
334 -131 122 -276 166 -435 132 -117 -25 -157 -85 -249 -369 -133 -411 -154
-472 -173 -517 l-21 -48 -25 55 c-13 30 -94 229 -179 442 l-154 387 30 48 c83
130 70 298 -43 564 -33 76 -52 109 -73 121 -40 24 -165 56 -276 69 l-97 12
-36 54 -36 53 60 70 c68 79 88 114 107 185 28 103 16 174 -65 390 -64 168 -63
167 -113 221 -35 38 -44 60 -88 211 -56 196 -97 375 -107 464 l-6 63 39 -24
c116 -70 185 -137 370 -360 158 -189 337 -362 435 -417 143 -82 265 -92 383
-34 74 36 153 111 185 176 27 55 54 217 107 644 39 321 34 303 121 426 33 48
35 53 31 122 -3 64 -9 83 -55 172 l-53 100 10 101 c5 56 15 131 21 166 14 79
0 96 151 -186 242 -451 432 -835 456 -923 6 -22 7 -66 1 -120 -12 -101 -6
-119 75 -241 44 -67 55 -94 66 -154 19 -115 52 -143 205 -177 61 -14 105 -16
204 -12 151 7 213 22 347 87 121 59 233 145 305 235 29 36 55 65 58 65 3 0 22
-24 41 -53 113 -167 446 -428 623 -486 261 -87 690 -117 1012 -71 286 41 493
89 642 152 166 69 390 224 538 373 99 99 192 252 335 551 55 115 125 259 155
319 52 102 55 107 51 66 -3 -25 -25 -85 -51 -137 -61 -121 -64 -151 -27 -294
35 -136 124 -380 157 -428 70 -102 275 -172 504 -172 120 0 205 20 423 99 92
34 172 61 178 61 26 0 110 52 143 89 48 54 82 122 113 232 25 84 26 101 21
228 -5 142 -18 199 -72 333 -49 121 -146 200 -279 228 -51 10 -54 13 -61 47
-3 20 -29 115 -57 212 -45 159 -98 371 -98 395 0 6 31 -37 68 -95 171 -263
263 -416 340 -569 98 -195 123 -223 248 -272 72 -28 101 -47 192 -127 356
-310 581 -458 809 -531 204 -66 349 -56 485 31 101 65 162 155 200 298 29 106
35 359 14 536 -9 72 -23 197 -33 279 l-17 148 28 54 c16 30 33 54 38 54 18 0
107 -64 117 -84 6 -12 33 -88 60 -171 27 -82 96 -267 154 -410 57 -143 119
-303 136 -355 41 -120 82 -164 198 -206 148 -54 281 -33 448 71 171 106 258
224 259 348 0 57 -6 74 -76 217 -43 85 -93 196 -113 245 -47 117 -106 318 -95
328 9 10 82 -9 133 -35 22 -11 103 -81 181 -156 78 -75 169 -161 203 -190 70
-61 85 -88 114 -204 31 -127 55 -160 144 -203 265 -125 595 -135 817 -24 122
61 236 184 319 342 l41 78 45 -90 c89 -179 221 -286 369 -297 96 -8 185 13
366 86 l151 61 116 -6 116 -7 195 75 c107 41 341 135 520 210 179 74 411 168
515 207 105 40 226 90 270 112 211 105 342 248 360 396 l7 53 43 -74 c84 -143
264 -304 410 -367 90 -39 238 -90 350 -121 90 -26 135 -32 250 -36 124 -4 155
-2 270 21 420 86 685 242 979 577 l116 133 39 121 c85 261 132 504 161 830 7
71 16 141 22 155 5 13 9 56 9 93 0 84 -31 157 -90 215 -48 47 -39 8 -121 524
l-52 328 35 47 c82 114 84 145 18 338 -43 124 -53 186 -66 415 l-7 115 46 70
c65 97 88 164 93 265 4 70 1 94 -16 138 -72 182 -174 248 -397 259 -175 9
-388 -32 -603 -116 -194 -75 -294 -147 -352 -253 -65 -121 -40 -233 85 -373
62 -70 75 -106 130 -355 l33 -152 -28 -73 c-53 -137 -60 -230 -28 -329 l21
-64 -51 -76 c-28 -41 -59 -79 -69 -84 -9 -5 -43 -13 -76 -17 -106 -13 -153
-32 -217 -91 -68 -62 -101 -69 -172 -33 -153 77 -268 238 -337 472 l-28 92 43
55 c104 135 203 351 212 460 7 77 -22 146 -111 272 -118 167 -158 193 -389
252 -270 70 -328 80 -437 81 -100 0 -108 -2 -180 -36 -41 -20 -140 -79 -219
-132 l-145 -95 -57 29 c-113 57 -198 74 -364 74 l-150 0 -280 -72 c-154 -40
-539 -133 -855 -208 -908 -214 -954 -227 -1110 -305 l-56 -28 -63 38 c-35 21
-101 51 -147 66 -72 23 -95 26 -176 22 -84 -3 -100 -7 -153 -37 -120 -67 -236
-154 -286 -214 -60 -72 -80 -109 -125 -234 -19 -51 -42 -110 -53 -131 -28 -54
-248 -366 -362 -513 -54 -70 -119 -165 -144 -210 -25 -46 -62 -105 -81 -131
-34 -48 -109 -106 -121 -95 -12 13 -34 248 -36 392 l-2 150 44 95 c70 151 69
258 -5 433 -40 97 -73 141 -133 178 -119 76 -283 89 -551 43 -310 -52 -487
-124 -625 -255 l-52 -49 -79 17 c-59 14 -124 18 -254 18 -269 0 -373 -29 -480
-134 -83 -82 -119 -161 -131 -291 -11 -120 -2 -179 43 -285 69 -160 79 -202
88 -365 12 -202 31 -340 86 -640 95 -510 129 -737 106 -715 -50 50 -470 671
-499 737 -7 15 -19 69 -28 120 -27 157 -55 198 -179 260 -129 65 -152 86 -259
233 -212 294 -363 473 -513 607 -112 99 -254 197 -319 220 -65 23 -186 23
-251 1 -76 -25 -167 -124 -231 -248 -86 -168 -119 -311 -130 -552 -3 -79 -8
-143 -10 -143 -2 0 -48 38 -101 84 -376 325 -746 516 -1101 567 -111 16 -330
6 -443 -20 -409 -94 -821 -355 -1116 -706 -135 -160 -177 -235 -402 -713 -89
-190 -106 -265 -120 -532 -14 -265 -27 -359 -61 -463 -32 -97 -77 -183 -89
-170 -19 19 -177 248 -333 479 l-168 249 -2 100 c-3 127 -15 148 -146 254
-111 91 -133 114 -226 236 -237 311 -478 557 -618 631 -160 84 -284 85 -403 3
-166 -113 -291 -297 -328 -484 -8 -44 -32 -177 -51 -295 -54 -322 -60 -347
-115 -455 -28 -54 -50 -104 -50 -111 0 -7 -26 13 -57 45 -38 37 -78 65 -114
80 -64 27 -60 21 -217 312 -140 259 -242 398 -341 461 -39 24 -55 28 -120 28
-63 0 -87 -5 -137 -29 -55 -26 -66 -36 -114 -112 -44 -68 -131 -240 -188 -369
-8 -18 -11 -20 -11 -8 -2 35 -64 215 -107 307 -160 342 -394 511 -708 511 -97
0 -239 -25 -287 -50 -18 -10 -19 -6 -19 87 0 184 -36 348 -103 477 l-32 61 0
165 0 165 -33 65 c-19 36 -63 101 -98 145 -136 167 -127 146 -120 260 21 357
17 462 -21 491 -68 53 -144 97 -192 110 -45 14 -71 31 -132 89 -81 75 -101 84
-234 101 l-50 6 0 206 c0 200 -1 208 -23 245 -13 20 -43 48 -66 62 -37 22 -55
25 -132 25 -49 0 -120 -5 -158 -10 -38 -6 -71 -8 -74 -6 -2 3 10 61 28 130 22
86 30 136 25 158 -11 51 -51 106 -95 128 -61 31 -113 26 -242 -24 -126 -50
-218 -75 -388 -106 -63 -12 -122 -23 -131 -26 -11 -3 -20 11 -33 53 -43 139
-137 272 -219 312 -57 28 -158 29 -209 2 -20 -10 -80 -51 -132 -91 -93 -70
-97 -72 -126 -60 -45 19 -129 115 -205 236 -85 134 -107 159 -162 180 -130 50
-323 -45 -392 -194 -14 -29 -31 -52 -38 -52 -30 0 -173 163 -300 341 -160 226
-344 454 -387 480 -39 24 -102 24 -141 0z m24898 -1563 c66 -12 65 -9 37 -125
-12 -49 -17 -95 -13 -114 l6 -32 -39 6 c-140 22 -144 22 -144 -5 0 -24 2 -25
44 -21 61 7 95 -3 108 -32 9 -19 6 -32 -16 -71 -32 -57 -32 -77 -6 -399 11
-132 20 -243 20 -247 0 -5 -31 -8 -70 -8 -38 0 -70 -4 -70 -8 0 -4 15 -16 33
-26 63 -37 179 -128 171 -135 -5 -5 -35 -18 -66 -31 -54 -21 -71 -41 -48 -55
6 -4 22 -30 37 -58 24 -47 26 -62 24 -149 -2 -119 10 -223 54 -491 42 -250 59
-444 43 -489 -9 -26 -26 -38 -105 -75 -52 -25 -93 -47 -91 -49 3 -2 36 5 74
16 76 22 120 25 129 10 4 -6 2 -25 -4 -43 -11 -31 -16 -35 -89 -52 -43 -10
-115 -19 -163 -19 -73 0 -93 4 -141 27 -45 22 -61 36 -77 71 -35 70 -25 116
29 135 l31 10 -6 123 c-6 116 -5 121 10 95 9 -15 34 -80 56 -145 22 -64 45
-121 51 -127 18 -18 -1 128 -47 360 -42 209 -49 272 -75 630 -6 83 -15 154
-20 159 -4 4 -14 -2 -20 -15 -17 -30 -6 -189 15 -230 15 -29 15 -30 -25 -77
-40 -48 -40 -49 -40 -133 -1 -207 -62 -329 -269 -534 -45 -44 -81 -83 -81 -87
0 -16 47 -7 106 21 36 17 92 57 135 97 56 53 66 60 42 28 -76 -97 -172 -163
-239 -164 -27 0 -33 -5 -48 -42 -9 -24 -25 -53 -35 -65 -23 -27 -81 -63 -103
-63 -14 0 -12 9 12 58 127 253 42 577 -182 690 l-57 29 56 17 57 18 45 -48
c25 -27 63 -69 83 -94 l37 -45 1 56 c0 51 3 59 41 100 95 102 154 212 225 413
l41 120 34 -52 c36 -54 49 -64 49 -34 1 36 40 101 100 165 34 37 57 67 51 67
-15 0 -141 -51 -253 -104 -106 -49 -111 -48 -83 22 32 76 88 107 246 137 46 8
106 23 133 31 41 14 46 18 31 27 -29 16 -183 2 -243 -22 -30 -12 -58 -19 -63
-16 -24 16 -110 341 -143 545 l-5 35 82 26 82 27 44 -22 c43 -21 43 -21 68
-116 32 -126 106 -347 111 -332 3 10 -83 456 -94 485 -2 7 13 36 33 64 28 39
45 53 63 53 17 0 32 11 47 34 11 18 47 50 80 71 32 21 73 47 90 59 18 11 33
24 33 29 0 4 -43 7 -95 7 -112 0 -152 -15 -161 -59 -4 -21 -17 -34 -52 -51
-26 -12 -110 -63 -187 -112 -167 -108 -183 -118 -189 -118 -3 0 2 20 10 45
l16 45 -34 42 c-19 24 -47 64 -61 89 l-27 47 33 24 c99 75 179 104 432 159
188 40 227 42 358 17z m-2336 -363 c81 -14 205 -39 274 -56 l126 -30 -43 -137
c-24 -75 -44 -142 -44 -149 0 -30 -39 -34 -148 -17 -103 16 -297 15 -373 -2
-30 -7 -31 -28 7 221 27 175 31 195 44 195 5 0 75 -11 157 -25z m-261 -173
c-9 -66 -24 -147 -35 -180 l-18 -61 31 -30 31 -30 164 31 c186 36 239 33 346
-16 67 -30 182 -143 164 -160 -7 -8 -17 -2 -32 19 -87 121 -208 158 -451 136
-156 -14 -227 -26 -269 -48 -26 -13 -28 -12 -39 12 -6 14 -16 25 -22 25 -6 0
-47 -23 -91 -50 l-80 -50 -6 27 c-22 94 1 259 48 344 34 63 74 97 183 154 85
44 85 44 88 20 2 -13 -4 -77 -12 -143z m-741 53 c152 -32 270 -123 315 -242
59 -158 81 -366 51 -473 -22 -76 -63 -150 -85 -155 -90 -17 -291 -36 -377 -36
-87 1 -199 18 -215 34 -2 2 2 42 8 90 6 48 9 89 7 91 -6 7 -203 -19 -349 -45
-190 -34 -879 -189 -973 -219 -113 -36 -190 -82 -211 -127 -9 -19 -21 -80 -27
-136 -9 -92 -9 -103 6 -112 53 -32 104 -78 115 -105 7 -17 10 -33 7 -36 -3 -3
-38 5 -78 18 -104 32 -269 32 -350 0 -61 -24 -136 -84 -158 -126 -8 -14 -18
-26 -23 -26 -5 0 -27 17 -49 38 l-40 37 50 69 c28 39 49 72 46 74 -2 2 -18 -1
-36 -7 -18 -6 -37 -11 -44 -11 -6 0 -26 52 -44 115 l-32 114 51 49 c31 30 50
57 51 73 3 80 -15 153 -71 276 l-29 63 49 53 c26 29 70 65 97 79 76 41 560
188 1048 318 216 58 1040 263 1095 273 53 9 128 6 195 -8z m1498 -112 c25 -43
49 -85 52 -95 4 -10 -12 -47 -41 -97 -26 -45 -48 -81 -51 -81 -2 0 -29 17 -61
37 -31 21 -59 38 -60 39 -4 2 110 274 114 274 1 0 23 -35 47 -77z m-574 -285
c6 -17 10 -33 8 -34 -1 -2 -25 0 -52 4 l-49 7 33 28 c41 34 47 34 60 -5z m179
2 c40 -11 101 -34 136 -50 62 -29 64 -32 98 -108 20 -42 64 -165 98 -272 104
-328 166 -429 333 -551 40 -29 96 -73 125 -97 l53 -45 72 6 c40 4 117 18 172
32 l100 26 37 -43 c54 -61 104 -170 133 -283 14 -54 25 -101 25 -105 0 -9
-236 -120 -255 -120 -10 0 -15 10 -15 29 0 42 -18 48 -28 9 -7 -30 -12 -33
-50 -36 l-41 -3 -3 45 -3 46 -55 -44 -55 -43 -74 8 c-113 12 -125 17 -196 69
-36 26 -115 69 -177 95 -62 26 -132 60 -155 76 -55 38 -141 140 -242 289 l-80
117 45 6 c53 6 62 12 48 35 -15 23 -60 27 -89 8 -24 -16 -24 -15 -59 57 -35
72 -98 157 -118 157 -18 0 1 -81 36 -155 18 -38 58 -105 89 -147 30 -42 75
-108 100 -145 130 -201 327 -367 604 -509 98 -50 104 -54 63 -48 -265 39 -532
182 -726 387 -268 283 -414 655 -414 1056 l0 134 36 33 c42 40 54 42 54 12 0
-71 33 -313 50 -377 22 -78 68 -174 80 -166 4 2 10 55 13 117 3 62 12 131 21
153 19 51 19 22 2 -70 l-14 -70 37 -31 c20 -17 60 -66 90 -108 30 -42 57 -76
61 -76 16 0 -3 107 -61 363 -22 95 -31 277 -16 330 9 33 20 33 115 7z m-530
-77 c2 -12 -6 -31 -17 -42 -37 -37 -74 0 -44 45 20 31 57 29 61 -3z m-3356
-57 c76 -38 142 -98 168 -152 12 -25 20 -47 17 -50 -3 -3 -40 26 -82 65 -43
39 -97 80 -121 92 -43 20 -45 20 -81 2 -57 -27 -69 -73 -48 -177 24 -117 29
-121 59 -56 14 30 26 62 26 70 1 8 12 -12 25 -44 l25 -59 -20 -32 c-11 -18
-20 -37 -20 -42 0 -6 42 -29 93 -52 97 -45 130 -69 153 -113 29 -55 22 -61
-61 -56 -229 15 -420 259 -384 492 18 112 56 149 145 143 31 -2 74 -15 106
-31z m-248 -391 c52 -106 127 -175 256 -238 58 -28 107 -52 109 -54 10 -8 -42
-96 -81 -139 l-43 -46 -64 6 c-138 12 -285 115 -349 242 -55 110 -52 115 23
45 75 -69 181 -151 197 -151 7 0 9 29 6 78 -4 66 -13 96 -61 209 -31 72 -57
137 -57 142 0 6 -4 11 -9 11 -8 0 -83 -29 -89 -34 -1 -2 16 -43 39 -92 49
-105 75 -177 56 -153 -6 8 -28 35 -48 60 -42 51 -79 120 -79 147 0 11 25 70
56 133 l56 114 24 -105 c13 -58 39 -137 58 -175z m-1548 174 c75 -13 96 -33
98 -90 1 -38 -4 -46 -54 -91 -107 -97 -243 -176 -375 -218 -108 -34 -294 -39
-405 -11 -105 26 -140 56 -147 124 -16 136 166 241 487 282 122 16 316 18 396
4z m2121 -277 c-3 -24 -13 -52 -23 -64 l-19 -20 -6 28 c-9 41 -10 209 -2 218
15 14 55 -117 50 -162z m2812 68 c-30 -188 -243 -328 -455 -299 -31 4 -90 24
-132 45 l-77 37 70 23 c39 13 61 23 49 23 -39 1 -119 31 -149 55 l-30 25 66
-6 c54 -5 72 -2 105 15 l39 21 -42 1 c-52 0 -85 12 -112 41 -35 38 -27 46 37
38 128 -16 471 -4 493 18 5 4 39 9 77 11 l69 2 -8 -50z m-4794 -49 l15 -74
-61 -99 -62 -100 -34 93 c-18 52 -33 99 -33 105 0 13 149 158 156 152 2 -2 10
-37 19 -77z m3885 44 c0 -3 -16 -37 -36 -76 -44 -87 -53 -152 -29 -202 36 -77
209 -175 391 -222 243 -63 346 -43 617 118 l128 76 10 -27 c59 -155 168 -354
264 -482 72 -97 237 -260 308 -305 26 -17 47 -32 47 -35 0 -3 -26 -18 -57 -35
-129 -67 -212 -190 -222 -329 l-6 -79 -48 61 c-87 112 -161 156 -257 155 -152
-1 -319 -77 -613 -276 -149 -101 -235 -185 -279 -274 -28 -58 -33 -78 -33
-143 0 -67 3 -80 33 -129 18 -29 30 -56 27 -59 -6 -7 -149 -42 -267 -67 l-76
-16 -94 37 c-78 31 -105 37 -169 37 l-77 1 -16 32 c-22 47 -78 106 -141 150
-30 20 -55 39 -55 41 0 2 9 30 20 63 11 32 23 90 26 129 7 77 2 72 81 85 28 5
43 -2 99 -45 159 -120 304 -161 441 -125 177 47 294 191 359 441 23 88 25 115
21 225 -3 107 -9 138 -36 220 -18 52 -59 147 -92 211 -91 175 -175 259 -288
289 -81 21 -338 -18 -446 -69 -82 -38 -128 -80 -176 -163 -43 -73 -98 -122
-151 -133 -27 -6 -36 -1 -85 46 -31 31 -67 81 -85 117 -29 58 -31 67 -19 95
35 86 40 107 41 168 0 83 -21 153 -65 217 l-34 50 112 36 c201 64 422 115 772
175 118 20 155 24 155 16z m-5355 -55 c11 0 15 -3 10 -8 -14 -12 -105 -2 -105
10 0 7 14 8 38 4 20 -3 46 -6 57 -6z m2649 -148 c14 -22 39 -57 57 -76 l31
-36 -42 -71 c-23 -40 -102 -161 -176 -271 -73 -109 -158 -242 -188 -296 -52
-92 -131 -271 -123 -279 12 -12 151 159 251 308 84 126 129 184 163 209 46 35
127 129 193 228 19 29 42 52 50 52 8 -1 61 -9 117 -18 l102 -18 -252 -354
c-139 -195 -293 -413 -342 -485 l-90 -130 -47 -3 c-99 -6 -319 109 -399 210
-53 67 -55 84 -24 159 99 235 277 525 530 865 l120 161 22 -57 c11 -32 33 -76
47 -98z m-2456 97 c123 -36 197 -70 205 -96 31 -104 64 -244 59 -247 -4 -2
-52 -17 -107 -32 -89 -26 -116 -29 -240 -28 -108 0 -150 4 -184 17 l-44 17
-36 -27 -36 -28 65 -13 c36 -8 133 -14 215 -15 166 -2 228 10 344 65 35 17 66
26 70 21 71 -103 66 -88 65 -224 -1 -119 -2 -130 -28 -174 -32 -54 -95 -98
-176 -123 -74 -22 -295 -22 -400 1 -85 19 -204 74 -238 110 l-24 25 73 -14
c40 -8 96 -20 124 -28 98 -29 228 -47 288 -40 33 3 55 10 50 15 -4 4 -70 15
-145 24 -75 8 -158 19 -183 25 -88 20 -158 67 -189 129 -21 39 -21 39 127 5
123 -28 243 -33 292 -13 l30 13 -30 3 c-269 31 -366 55 -447 108 -22 15 -38
28 -36 30 2 3 62 -10 133 -28 111 -27 148 -32 257 -32 82 0 131 4 138 11 9 9
-14 14 -92 19 -230 16 -348 53 -419 133 -34 39 -47 62 -36 62 2 0 30 -9 62
-20 32 -11 62 -20 66 -20 17 0 -24 66 -56 90 -51 39 -75 80 -75 131 0 37 6 52
42 94 23 28 39 43 35 34 -3 -10 -11 -44 -17 -77 -18 -91 1 -124 105 -179 135
-71 288 -100 386 -73 82 23 179 116 179 172 0 64 -58 128 -116 128 -18 0 -35
-4 -38 -9 -3 -4 15 -34 39 -66 25 -31 45 -59 45 -61 0 -3 -24 9 -52 26 -58 34
-155 80 -169 80 -13 0 -11 18 2 26 7 4 9 22 6 45 -3 22 -3 39 0 39 3 0 53 -14
111 -31z m1072 -91 c12 -40 25 -85 30 -101 9 -26 7 -28 -59 -62 -68 -34 -291
-115 -317 -115 -28 0 -46 148 -24 191 6 10 25 26 43 36 45 24 279 121 294 122
7 1 22 -32 33 -71z m-540 -54 l46 -6 23 -81 c13 -45 26 -89 28 -98 4 -14 -6
-14 -109 0 -130 19 -124 12 -113 128 l7 74 36 -5 c21 -3 57 -8 82 -12z m-2903
-102 c276 -194 518 -445 713 -742 49 -74 101 -152 115 -173 14 -21 53 -55 87
-75 101 -62 152 -97 155 -107 1 -5 -55 -32 -125 -59 -179 -68 -245 -107 -330
-193 -87 -89 -108 -93 -106 -18 1 28 14 80 29 118 15 37 25 70 23 73 -3 2 -21
-16 -40 -41 l-36 -45 -47 52 c-25 28 -69 82 -97 120 -28 37 -53 68 -56 68 -2
0 -31 -23 -63 -51 l-59 -51 0 105 c0 90 21 251 34 264 2 2 44 -21 93 -51 50
-31 95 -56 101 -56 17 0 4 56 -29 127 -44 92 -193 233 -247 233 -55 0 -72 -71
-72 -295 0 -166 6 -245 40 -546 l13 -107 60 -31 c58 -30 97 -39 97 -23 0 5
-11 42 -25 82 -14 40 -25 75 -25 77 0 1 29 -13 64 -32 37 -21 80 -36 103 -38
39 -2 40 -3 31 -27 -22 -57 -80 -99 -208 -150 -47 -18 -89 -37 -95 -42 -5 -4
18 -8 53 -8 34 0 62 -4 62 -8 0 -23 -94 -82 -129 -82 -7 0 -8 17 -4 45 l6 45
-115 -6 -115 -7 -17 48 c-9 27 -14 50 -13 52 2 1 33 6 68 9 96 10 98 18 12 44
-43 13 -79 25 -81 26 -1 1 -32 185 -68 410 -62 388 -65 416 -61 539 4 107 11
154 40 267 20 76 46 156 58 179 20 40 105 139 118 139 3 -1 43 -27 88 -58z
m-10872 -42 c302 -25 547 -129 708 -299 199 -211 350 -569 441 -1046 84 -445
97 -945 37 -1539 l-17 -168 141 -67 c505 -242 900 -601 1109 -1007 l37 -72
-62 -122 -61 -122 127 -128 128 -128 -6 -119 c-3 -65 -12 -155 -18 -200 l-12
-82 -51 -17 c-113 -37 -160 -75 -172 -141 -4 -21 2 -77 16 -146 15 -72 21
-125 17 -148 -4 -19 -37 -80 -73 -135 -284 -428 -719 -789 -1279 -1064 -539
-264 -1196 -442 -1807 -491 -197 -15 -691 -7 -858 15 -777 102 -1422 379
-1830 786 -274 273 -453 609 -500 935 -14 102 -12 286 5 395 51 334 204 651
470 974 52 64 106 133 120 154 50 76 48 84 -72 327 -319 645 -488 1154 -559
1685 -23 169 -23 445 -1 566 69 380 246 609 601 780 285 137 748 244 1053 244
198 0 425 -55 542 -130 73 -48 144 -129 196 -224 l41 -75 39 72 c152 287 355
489 596 594 174 75 515 139 804 151 17 1 84 -3 150 -8z m14435 -75 c31 -93 81
-708 65 -810 -8 -54 -33 -76 -147 -130 -104 -49 -205 -57 -288 -23 -60 25 -52
8 -79 173 -7 39 -48 178 -91 310 -74 224 -99 313 -114 392 l-5 33 31 -13 c18
-7 53 -40 78 -73 26 -32 54 -60 64 -62 9 -2 45 10 80 26 l63 30 88 -273 c73
-227 92 -274 109 -279 11 -3 23 -3 26 0 14 15 -3 129 -35 236 -20 65 -35 126
-33 136 2 11 20 -12 48 -60 24 -43 46 -78 49 -78 4 0 6 84 6 188 0 148 4 205
19 271 l19 83 18 -23 c10 -13 23 -37 29 -54z m2633 -36 c36 -10 42 -17 77 -92
30 -64 100 -286 100 -318 0 -3 -29 -9 -64 -13 -88 -9 -201 -39 -302 -80 l-84
-34 -9 36 c-29 112 -94 388 -95 400 -1 10 17 19 54 28 30 7 60 13 67 14 6 0
16 -30 22 -72 19 -120 31 -161 57 -195 26 -35 61 -43 70 -18 9 22 -14 137 -46
239 -16 50 -28 91 -27 92 2 2 104 20 132 23 6 0 27 -4 48 -10z m-723 -166 c18
-32 66 -90 106 -128 72 -70 74 -72 89 -147 16 -75 16 -77 -6 -120 -27 -53 -37
-160 -19 -214 8 -23 44 -71 95 -125 89 -93 132 -167 164 -280 l19 -66 -39
-121 c-50 -158 -44 -188 61 -332 51 -68 77 -117 68 -125 -3 -3 -47 18 -99 47
-207 114 -268 122 -411 53 l-78 -37 -47 27 c-199 115 -355 210 -369 226 -9 10
-35 56 -58 101 -39 78 -44 84 -105 117 l-63 34 37 33 c20 19 48 59 62 90 21
47 26 74 30 182 l5 127 51 85 c71 119 163 246 328 453 79 97 143 177 145 177
1 0 17 -26 34 -57z m-7195 22 c95 -20 214 -60 313 -106 302 -139 644 -426 841
-707 61 -88 137 -241 124 -251 -4 -4 -41 -13 -81 -19 -201 -33 -415 -148 -577
-312 l-68 -69 -151 156 c-219 227 -358 328 -535 393 -106 39 -197 40 -306 6
-196 -62 -368 -214 -551 -487 -186 -278 -274 -508 -277 -728 l-1 -89 -24 16
c-43 28 -51 58 -41 164 12 129 55 292 124 473 140 367 234 507 553 823 124
122 132 132 105 132 -45 0 -131 -28 -207 -68 -125 -65 -292 -244 -430 -460
-204 -320 -329 -716 -330 -1047 -1 -139 15 -205 67 -283 l34 -50 -55 -6 c-30
-4 -55 -5 -56 -4 -1 2 -11 23 -23 48 l-22 45 6 -52 6 -53 -49 6 c-94 11 -151
32 -180 67 -76 90 -104 217 -106 477 -2 167 1 198 25 315 98 460 362 938 694
1255 237 227 491 360 788 415 97 18 304 18 390 0z m9015 -232 c-60 -109 -105
-169 -155 -203 -41 -28 -129 -59 -139 -49 -3 2 -8 27 -11 54 l-7 50 67 73 c88
94 183 149 263 151 23 1 23 -1 -18 -76z m229 32 c46 -52 117 -208 141 -305 24
-104 27 -260 5 -345 -14 -53 -56 -150 -74 -167 -10 -11 -138 78 -193 134 -83
85 -149 267 -150 413 -1 90 11 124 68 211 44 66 84 94 135 94 30 0 43 -7 68
-35z m-5579 -143 c5 -20 14 -55 20 -77 17 -68 21 -70 110 -70 79 0 82 -1 110
-32 46 -52 58 -115 85 -468 36 -476 74 -808 93 -827 4 -3 27 6 52 20 l45 27
-43 3 c-24 2 -42 6 -40 10 2 4 16 32 33 62 35 66 34 40 12 555 -17 384 -33
633 -43 693 l-5 32 50 0 50 0 -13 -32 c-34 -83 -34 -82 24 -75 67 8 144 44
201 95 l46 41 6 -242 c6 -217 15 -406 47 -934 5 -89 17 -194 26 -234 l16 -73
-34 -31 c-29 -27 -48 -34 -112 -44 -204 -30 -400 11 -514 108 -31 27 -34 34
-62 192 -52 288 -210 1299 -210 1341 0 33 38 2 50 -40z m4514 22 c25 -9 19
-55 -14 -120 -19 -38 -30 -74 -30 -102 0 -35 -13 -63 -77 -167 -83 -133 -91
-137 -92 -45 -1 54 23 158 45 203 l17 32 -25 -22 c-31 -29 -33 -29 -122 7
l-75 30 -48 -21 c-54 -24 -165 -69 -170 -69 -11 0 1 61 17 88 34 55 219 163
310 181 53 10 241 14 264 5z m-2451 -184 c-7 -52 -15 -96 -18 -98 -2 -2 -13 1
-24 8 -37 19 -24 86 32 162 11 15 21 27 22 25 1 -1 -4 -45 -12 -97z m2940 -32
c30 -46 66 -105 80 -133 35 -72 69 -177 60 -185 -4 -4 -89 -25 -188 -45 -99
-21 -230 -53 -292 -71 -61 -19 -127 -34 -147 -34 -34 0 -37 3 -71 70 -19 38
-35 72 -35 75 0 4 22 -6 49 -22 l49 -27 139 66 c156 75 228 99 326 107 l67 6
-25 38 c-24 35 -29 37 -78 37 -97 0 -213 -38 -471 -154 l-59 -27 7 43 c14 92
24 106 89 140 92 47 420 196 434 197 6 1 36 -36 66 -81z m267 4 c0 -61 26
-167 60 -247 l21 -50 -38 -32 c-68 -58 -86 -47 -157 102 -36 74 -90 235 -82
242 6 6 153 40 179 42 14 1 17 -8 17 -57z m-3437 -34 c24 -28 23 -74 -3 -81
-34 -9 -85 24 -88 58 -7 54 51 69 91 23z m7843 -95 c-12 -171 -35 -294 -90
-490 -100 -349 -133 -407 -321 -563 -160 -131 -424 -278 -600 -333 -251 -79
-534 -49 -804 85 -203 100 -287 199 -398 473 -29 72 -53 133 -53 136 0 3 72 6
161 5 l160 -1 30 -70 c85 -203 281 -360 499 -401 66 -13 125 -15 260 -11 287
8 386 46 581 222 123 110 172 173 190 239 6 23 24 76 40 119 17 44 28 84 26
90 -3 11 -65 -57 -169 -188 -142 -179 -349 -308 -558 -351 -243 -49 -568 59
-712 237 -40 49 -91 129 -86 134 2 2 53 23 114 47 l110 45 58 -54 c145 -135
334 -165 546 -87 143 53 309 189 396 323 35 54 43 60 83 68 l45 8 23 75 c13
41 30 114 39 163 l17 87 61 0 c60 0 62 -1 80 -35 23 -42 103 -118 115 -110 12
7 34 142 27 161 -4 11 11 23 57 44 34 16 66 29 71 30 5 0 6 -42 2 -97z m-5520
53 c1 0 18 -79 37 -174 25 -124 45 -194 70 -245 34 -72 81 -137 98 -137 6 0 7
27 4 65 -3 36 -7 95 -10 132 l-6 66 65 -60 c56 -53 103 -80 171 -98 6 -1 21
-32 35 -69 l24 -66 58 6 c55 6 58 5 58 -15 0 -33 -35 -95 -71 -125 -48 -41
-111 -69 -256 -116 l-133 -42 -42 25 c-24 14 -67 44 -97 68 l-54 43 28 24 28
23 36 -35 c59 -57 131 -70 232 -40 56 16 144 62 136 71 -3 2 -48 -7 -101 -21
l-96 -26 -54 21 c-30 11 -59 26 -65 33 -6 7 -24 64 -40 127 -16 63 -55 183
-85 267 -47 129 -67 193 -102 314 -4 15 0 15 63 1 37 -9 69 -16 69 -17z
m-11760 -11 c104 -31 232 -134 387 -313 131 -151 369 -461 362 -472 -3 -5 -24
-15 -45 -21 -22 -7 -40 -15 -40 -19 0 -9 63 -20 120 -20 96 0 140 -26 140 -83
l0 -25 -87 20 c-49 11 -98 22 -110 25 -18 4 -46 -17 -140 -107 -64 -61 -134
-125 -154 -141 -36 -29 -38 -29 -44 -9 -4 12 -4 56 0 98 l7 77 -41 -40 -41
-39 -60 59 -59 59 -11 -30 c-23 -65 -20 -63 -79 -37 l-54 24 5 82 c4 52 13
101 27 132 l21 50 -20 59 c-11 33 -19 61 -17 63 2 1 27 -9 56 -23 34 -17 88
-63 157 -134 112 -114 204 -178 204 -143 0 29 -59 121 -137 215 -38 45 -97
119 -130 163 -73 96 -118 140 -158 155 -38 15 -45 6 -84 -118 -39 -121 -58
-220 -72 -374 -13 -140 -17 -132 101 -211 139 -93 180 -141 180 -207 0 -56
-12 -67 -46 -43 -44 31 -102 46 -148 40 -39 -6 -47 -3 -97 39 -72 59 -128 85
-188 87 l-50 2 -45 70 -44 70 34 235 c43 298 59 392 90 509 38 147 93 236 169
275 38 20 78 20 141 1z m16530 -32 c19 -103 -48 -275 -146 -373 -141 -141
-367 -184 -463 -89 -28 29 -29 33 -24 97 6 77 67 279 88 293 23 15 109 10 197
-11 46 -11 94 -20 108 -20 36 0 93 32 160 89 33 28 62 50 66 51 4 0 10 -17 14
-37z m-6456 -167 c41 -13 98 -29 127 -34 51 -9 53 -8 84 24 18 19 37 34 41 34
4 0 8 -29 8 -65 l0 -65 -62 0 c-35 0 -106 7 -158 15 -52 8 -108 15 -125 15
l-30 0 47 -46 46 -47 -64 -100 c-35 -55 -61 -104 -58 -108 3 -5 39 -32 80 -61
l75 -52 -28 -20 c-68 -49 -144 -132 -177 -194 -20 -37 -42 -74 -48 -83 -18
-22 -68 -53 -74 -46 -4 3 1 27 10 53 28 81 18 114 -35 114 -20 0 -28 -6 -33
-25 -3 -13 -11 -36 -16 -50 l-10 -25 -50 25 c-27 14 -52 25 -55 25 -6 0 2 -99
11 -131 2 -8 -17 -43 -42 -77 -25 -34 -43 -66 -40 -71 3 -5 23 -12 43 -15 74
-13 75 -14 57 -41 -42 -64 -172 -118 -312 -130 -99 -9 -112 -2 -112 63 0 41
-5 50 -54 102 -59 62 -65 77 -90 230 -8 52 -40 176 -70 275 -29 99 -61 216
-70 260 -22 105 -40 139 -95 180 -62 45 -88 75 -97 109 l-7 29 64 -45 c35 -25
75 -51 89 -58 100 -52 226 -17 394 109 l80 60 25 -19 c14 -10 34 -27 44 -37
16 -19 16 -21 -4 -39 -12 -10 -30 -32 -41 -47 l-21 -29 58 7 58 8 -23 -39
c-13 -22 -28 -46 -33 -55 -9 -15 -16 -14 -70 8 -66 27 -59 29 -100 -41 l-22
-38 -16 53 -17 54 -68 -1 c-53 0 -83 -6 -128 -27 -32 -15 -56 -30 -53 -34 4
-3 49 -27 99 -52 l93 -46 12 -90 c15 -107 44 -203 81 -265 l27 -45 3 69 3 69
24 -36 c14 -19 43 -76 65 -126 40 -93 81 -164 100 -176 16 -10 3 59 -38 205
-89 321 -98 383 -61 416 12 10 50 55 85 100 76 97 143 160 191 180 58 25 66
15 61 -69 -4 -56 -14 -92 -42 -157 -21 -47 -54 -120 -73 -163 l-35 -78 39 -47
c50 -58 132 -115 203 -141 70 -25 110 -34 110 -24 0 5 -52 70 -114 146 l-114
139 41 60 c32 47 53 66 94 85 54 26 103 73 103 99 0 8 -41 35 -95 61 -105 53
-101 43 -59 138 l23 54 133 -69 c73 -38 167 -80 208 -94z m5450 120 c41 -9
105 -26 142 -38 l68 -22 -26 -27 c-35 -36 -101 -64 -215 -89 -162 -36 -237
-42 -416 -30 -91 6 -168 8 -171 5 -3 -3 7 -18 22 -34 23 -24 25 -29 11 -35 -9
-3 -29 -6 -44 -6 -28 0 -28 1 -23 49 3 39 0 57 -16 83 l-21 34 52 31 c68 40
155 72 242 89 88 17 292 12 395 -10z m-18240 -85 c119 -46 210 -144 294 -316
193 -397 234 -1013 111 -1670 -51 -270 -131 -441 -279 -593 -65 -67 -190 -162
-213 -162 -16 0 -136 161 -127 169 5 4 42 29 81 55 40 26 86 64 103 84 30 37
67 118 58 127 -3 3 -49 -20 -103 -51 -53 -31 -128 -70 -166 -86 l-69 -31 -76
69 c-138 125 -260 218 -413 313 -83 52 -151 96 -151 97 0 2 29 48 65 103 202
308 231 528 100 768 l-34 61 51 74 c90 130 180 241 288 352 161 166 274 237
353 222 40 -7 138 -105 192 -190 76 -119 127 -283 150 -475 11 -95 13 -103 23
-78 21 49 35 208 28 314 -27 421 -297 768 -494 636 -164 -111 -445 -432 -613
-704 l-61 -97 -40 14 c-22 7 -67 16 -102 20 l-62 6 -13 185 c-6 101 -14 190
-17 197 -7 18 263 278 376 362 156 117 335 210 468 244 64 16 230 5 292 -19z
m15760 -147 c67 -43 109 -83 134 -124 l18 -32 -48 8 c-101 14 -245 87 -252
127 -6 28 27 57 62 57 19 0 53 -14 86 -36z m2618 -14 c-23 -38 -114 -91 -246
-145 -73 -30 -153 -69 -179 -87 -47 -32 -47 -33 -21 -36 42 -5 139 23 268 78
65 28 133 53 151 57 l33 6 -20 -34 c-47 -81 -216 -159 -343 -159 -104 0 -251
12 -246 20 3 4 32 13 65 19 49 10 60 16 60 32 0 19 -5 19 -146 13 l-147 -7 7
29 c4 16 9 30 10 32 2 1 55 6 118 11 63 5 126 14 139 22 l24 13 -25 7 c-14 4
-85 7 -157 8 -73 1 -133 4 -133 9 0 4 9 18 20 32 l19 25 233 2 233 2 -73 -26
c-88 -30 -84 -47 10 -41 53 3 87 14 194 65 109 52 140 66 162 72 1 1 -3 -8
-10 -19z m-9125 -53 l12 -57 80 50 c43 27 82 50 85 50 3 0 20 -24 39 -53 19
-28 173 -247 343 -485 170 -238 311 -439 314 -445 2 -7 -18 -22 -47 -36 -110
-50 -231 -208 -284 -369 l-17 -52 -257 407 c-141 225 -294 466 -340 538 -46
71 -100 163 -121 205 l-38 75 85 -3 84 -3 55 -67 c31 -37 88 -112 127 -167
233 -329 322 -435 384 -461 65 -28 62 -13 -9 59 -83 82 -164 198 -263 372
-153 268 -253 395 -312 395 -45 0 -80 -15 -141 -62 -30 -22 -56 -37 -59 -35
-8 8 39 71 75 102 31 26 183 107 189 101 2 -1 8 -28 16 -59z m7732 22 c-4 -12
-15 -40 -26 -63 -10 -22 -16 -42 -14 -44 2 -2 16 5 32 15 15 11 48 32 72 47
l43 28 -28 -51 c-41 -77 -124 -162 -243 -252 -116 -88 -216 -141 -301 -158
-30 -7 -66 -14 -80 -17 l-25 -6 25 20 c14 11 77 52 140 92 63 40 145 97 183
127 62 50 67 57 67 93 0 43 -23 64 -63 58 -22 -3 -25 -16 -13 -54 6 -21 -9
-33 -184 -147 l-25 -16 3 40 4 41 -41 -27 -40 -27 19 -39 c11 -21 20 -42 20
-47 0 -11 -82 -38 -152 -51 l-48 -8 31 39 c44 55 176 173 268 238 87 63 208
128 303 165 78 30 81 30 73 4z m-15839 -146 c113 -137 233 -346 352 -610 l41
-93 73 0 c78 0 98 -9 98 -44 0 -16 -20 -31 -83 -63 -110 -57 -164 -98 -198
-152 -16 -25 -29 -37 -29 -28 0 25 -10 21 -60 -23 l-45 -40 -37 43 c-33 38
-37 40 -43 22 -19 -52 -58 -131 -73 -149 -9 -10 -30 -27 -47 -37 l-30 -19 73
0 73 0 -15 -27 c-8 -16 -26 -39 -41 -53 -24 -23 -34 -25 -103 -23 -75 1 -205
27 -287 56 l-40 14 38 19 c20 10 37 20 37 24 0 3 -16 21 -35 40 l-35 34 0 107
c0 84 8 146 36 281 69 336 110 471 200 650 50 99 81 138 111 138 7 0 38 -30
69 -67z m15977 -11 l36 -37 -96 -75 c-270 -211 -306 -234 -410 -269 -34 -12
-82 -21 -105 -21 l-43 0 92 49 c147 78 240 148 363 272 63 64 117 117 120 117
3 1 22 -15 43 -36z m-5694 -178 c51 -155 97 -341 87 -351 -9 -9 -97 49 -117
77 -19 26 -32 136 -44 365 -5 101 -4 108 10 84 8 -15 37 -94 64 -175z m-3376
151 c55 -20 55 -19 -4 -106 l-41 -60 44 -47 c177 -189 220 -542 117 -947 -69
-270 -302 -820 -430 -1015 -72 -109 -394 -411 -531 -497 -137 -86 -475 -187
-699 -208 l-67 -6 -21 34 c-28 45 -105 117 -161 150 -88 50 -198 82 -460 132
-230 44 -303 76 -410 185 -120 122 -238 365 -279 574 -12 60 -29 125 -37 144
-17 42 -17 42 0 42 13 0 26 -41 26 -85 0 -15 8 -25 23 -29 61 -16 123 5 148
51 12 22 29 31 29 15 0 -16 157 -248 211 -311 82 -96 173 -167 284 -221 124
-60 205 -80 322 -80 92 0 214 27 229 51 11 18 -39 59 -80 66 -21 3 -82 0 -137
-7 -89 -12 -102 -11 -143 4 -71 27 -187 107 -270 187 -63 59 -256 282 -303
348 -11 16 -2 26 78 90 75 60 90 69 95 54 38 -117 137 -240 279 -346 95 -71
190 -117 306 -149 70 -19 109 -23 234 -23 174 0 265 20 401 85 296 143 507
478 610 968 22 105 26 150 25 265 -1 116 1 144 18 181 30 70 38 64 48 -31 14
-147 7 -405 -15 -553 -34 -231 -70 -370 -179 -699 -11 -34 50 63 88 140 70
140 165 460 205 689 21 123 22 304 0 393 -9 37 -29 95 -45 127 l-29 59 64 40
c76 48 134 131 91 131 -27 0 -175 -80 -257 -138 l-84 -61 -38 52 -38 52 68 64
c130 123 283 216 416 252 85 23 224 20 299 -6z m-1528 -54 c89 -42 168 -106
290 -237 l110 -117 5 -118 c5 -112 6 -119 36 -161 18 -23 69 -69 115 -101 46
-32 85 -64 87 -72 10 -43 -96 -437 -147 -550 -68 -150 -176 -265 -314 -334
-120 -60 -188 -74 -327 -68 -126 5 -205 27 -322 89 -76 40 -223 183 -258 249
l-24 46 33 79 c25 60 35 99 38 160 6 98 -9 135 -99 237 l-60 68 17 72 c79 328
270 634 455 731 134 71 252 79 365 27z m10735 -176 c133 -303 141 -398 36
-476 -84 -63 -357 -180 -886 -379 -135 -51 -310 -120 -390 -152 -176 -73 -185
-75 -210 -53 -20 18 -40 13 -40 -10 0 -7 -12 -23 -26 -34 -24 -19 -38 -21
-138 -19 l-111 3 -115 -48 c-189 -80 -256 -100 -342 -100 -63 -1 -81 3 -99 19
-38 33 -107 149 -144 239 -32 80 -105 349 -105 388 0 11 -12 18 -37 22 -59 10
-124 36 -130 52 -6 14 43 130 59 139 4 3 27 -6 50 -18 36 -19 58 -23 139 -23
93 0 98 1 184 44 63 31 105 61 152 107 l64 64 41 -39 c39 -35 41 -41 31 -64
-7 -14 -37 -55 -68 -92 -31 -37 -55 -68 -52 -71 2 -2 21 3 42 11 20 9 39 15
41 12 2 -2 22 -31 44 -65 l40 -62 52 0 c29 0 80 7 113 15 33 8 67 14 76 15 11
0 37 -36 73 -100 67 -117 81 -131 71 -69 -18 121 -57 198 -120 239 -25 16 -26
20 -12 26 30 11 85 -6 128 -39 105 -80 131 -151 131 -360 l-1 -138 32 3 c18 2
31 8 30 13 0 6 -4 44 -8 86 -7 74 -6 76 16 82 13 4 38 7 55 7 67 0 203 46 539
181 553 223 583 236 616 281 31 44 45 109 35 163 -7 38 -64 111 -76 98 -4 -4
-12 -46 -18 -93 -16 -126 -20 -134 -104 -176 -70 -35 -410 -170 -698 -276
-132 -48 -380 -122 -387 -114 -2 2 -10 51 -17 108 l-12 105 173 37 c95 20 260
61 366 91 181 52 194 57 227 94 24 26 59 48 115 71 157 63 299 163 435 307 41
43 78 76 81 73 4 -3 30 -59 59 -125z m-8431 -203 c40 -145 137 -488 217 -764
115 -398 142 -503 132 -515 -17 -20 -90 -62 -149 -84 -151 -58 -414 -36 -447
36 -14 31 -230 881 -271 1066 -32 145 -81 417 -81 451 0 19 5 20 51 16 40 -4
65 -16 125 -57 41 -29 90 -55 109 -58 19 -3 35 -9 35 -14 0 -87 209 -1072 233
-1095 3 -3 21 -1 41 6 43 14 51 42 41 143 -12 120 -61 375 -99 503 -70 242
-70 366 -1 535 4 11 -4 29 -25 52 -28 33 -29 36 -13 46 10 5 21 7 24 3 3 -4
38 -125 78 -270z m8167 165 c-197 -161 -333 -217 -451 -183 -30 8 -29 8 22 22
63 16 154 61 248 122 39 25 106 65 149 88 72 38 81 41 92 26 10 -14 1 -25 -60
-75z m-1966 -124 c28 -56 50 -107 50 -112 0 -19 -99 -89 -155 -110 -61 -23
-156 -28 -202 -10 -65 24 -104 92 -127 223 l-7 38 48 -6 c109 -16 109 -16 142
-66 31 -48 109 -125 117 -117 3 3 -15 56 -40 118 -26 62 -46 116 -46 120 0 3
19 3 43 -2 82 -16 87 -14 87 34 l0 42 21 -25 c11 -14 42 -71 69 -127z m-1868
20 c108 -59 494 -297 515 -317 10 -9 -3 -35 -59 -119 l-71 -107 -31 19 c-284
173 -429 256 -564 323 -90 44 -161 85 -160 92 2 6 26 22 53 36 28 13 82 48
120 76 39 29 76 53 82 53 7 1 59 -24 115 -56z m-5923 -122 c33 -44 61 -82 61
-85 0 -11 -82 35 -106 59 -17 18 -24 35 -24 65 0 22 2 40 4 40 2 0 31 -36 65
-79z m-3653 -38 c20 -32 74 -105 119 -163 45 -58 185 -251 310 -430 126 -179
275 -389 331 -467 l103 -142 -51 -31 c-52 -32 -118 -51 -118 -33 0 5 -6 17
-13 27 -12 16 -17 15 -65 -23 -52 -42 -64 -61 -38 -61 63 0 -17 -105 -177
-232 l-38 -30 27 58 c79 177 77 179 -31 29 l-69 -95 -46 88 c-26 48 -171 331
-323 629 -248 487 -320 643 -303 660 10 10 85 -58 131 -119 26 -34 65 -94 88
-132 22 -39 42 -73 44 -75 1 -2 15 4 30 14 l28 18 -22 -24 -22 -24 38 -62 c33
-51 45 -62 77 -70 37 -8 43 -16 109 -130 39 -66 93 -156 122 -199 60 -91 158
-202 168 -192 11 10 -116 260 -292 578 -88 157 -187 339 -222 405 -65 125
-109 182 -149 192 -29 7 -24 25 11 37 18 7 48 5 92 -3 78 -16 91 -12 100 28 4
17 8 31 10 31 3 0 21 -26 41 -57z m7750 -181 c7 -36 0 -125 -12 -143 -6 -10
-104 76 -104 91 0 4 19 33 42 65 38 53 42 56 54 40 8 -10 17 -34 20 -53z
m1591 29 c45 -16 160 -71 255 -123 95 -53 205 -108 243 -122 39 -15 78 -30 87
-34 16 -6 12 -19 -33 -117 -28 -60 -55 -120 -60 -133 l-9 -23 -28 21 c-36 29
-522 456 -592 520 l-55 51 55 -6 c30 -3 92 -19 137 -34z m-2220 -114 c151 -50
282 -58 396 -23 l44 13 7 -60 c3 -33 6 -79 6 -103 l0 -43 45 -6 c24 -4 48 -12
53 -19 12 -14 29 -164 38 -316 7 -131 -10 -445 -32 -569 -18 -101 -45 -169
-84 -206 -27 -26 -33 -27 -87 -21 -95 11 -172 35 -279 85 -228 109 -554 368
-724 576 -98 120 -94 110 -70 203 11 44 20 92 20 107 0 24 28 -1 213 -187 280
-283 442 -413 516 -413 79 0 156 84 168 183 9 78 -8 75 -98 -14 l-79 -78 -57
55 c-56 53 -311 293 -480 450 l-82 77 54 68 c30 38 50 71 44 72 -5 2 -34 -8
-63 -22 -64 -31 -144 -113 -180 -183 -30 -59 -66 -184 -66 -228 0 -41 -13 -61
-28 -42 -30 36 -52 105 -52 168 0 86 21 153 72 229 48 72 117 127 245 193 l88
46 94 -119 c52 -66 111 -136 133 -157 l38 -37 0 82 c0 45 2 82 4 82 2 0 32
-10 67 -23 65 -24 78 -24 199 -2 l35 7 -35 18 c-19 11 -78 33 -130 51 -175 59
-207 83 -225 169 -3 19 -8 42 -11 50 -3 11 30 -1 100 -35 56 -28 139 -63 183
-78z m3404 97 l80 -27 -83 -31 c-46 -17 -105 -46 -132 -64 -27 -18 -51 -32
-55 -30 -31 15 -111 64 -111 70 0 8 105 72 151 93 47 20 58 19 150 -11z
m-15099 -73 c50 -21 101 -68 125 -115 9 -17 18 -65 21 -108 8 -129 -35 -241
-174 -451 -61 -91 -67 -97 -92 -91 -15 4 -29 8 -32 10 -3 1 0 58 7 126 6 67
15 244 19 392 l7 268 38 -6 c20 -3 57 -14 81 -25z m3012 -31 c19 -31 21 -51
20 -175 0 -77 -4 -157 -8 -178 -7 -38 -8 -38 -27 -21 -11 10 -33 46 -51 81
-40 81 -49 177 -23 255 29 90 53 100 89 38z m10365 -92 c31 -178 101 -450 146
-573 20 -55 39 -107 41 -115 4 -14 -35 -34 -146 -75 -12 -4 -15 3 -12 40 4 39
-4 63 -47 153 -37 79 -61 150 -91 271 -22 90 -56 200 -76 245 -19 44 -38 87
-41 94 -4 10 2 13 23 10 26 -3 30 -8 39 -53 12 -62 21 -75 47 -75 26 0 115 87
102 99 -5 5 -40 15 -77 23 l-68 13 63 37 c35 21 65 38 68 38 3 0 16 -60 29
-132z m-9917 102 l36 -10 7 -106 c4 -58 5 -149 1 -202 -4 -53 -2 -144 3 -201
l9 -104 44 -38 43 -37 -28 -7 c-51 -13 -179 0 -224 23 l-41 22 -50 -58 c-28
-31 -53 -55 -56 -52 -10 11 -30 100 -23 106 4 4 31 9 61 12 l54 4 -22 37 c-20
35 -21 47 -21 316 0 154 4 289 8 299 7 17 15 18 85 13 42 -3 93 -11 114 -17z
m11864 -48 c99 -72 136 -256 84 -419 -45 -139 -174 -299 -287 -355 -62 -30
-72 -32 -170 -31 -58 0 -109 5 -114 10 -6 6 0 18 16 33 14 13 25 27 25 31 0 4
-29 30 -64 58 -77 61 -96 98 -96 183 0 173 107 356 247 425 66 32 256 92 294
93 14 0 44 -13 65 -28z m-496 -49 c0 -24 -16 -62 -50 -122 -42 -73 -74 -143
-113 -253 -5 -15 -15 -13 -88 16 -46 17 -84 36 -86 41 -1 6 23 68 55 139 l57
129 105 47 c58 26 108 45 113 43 4 -2 7 -20 7 -40z m-12166 -111 c32 -81 92
-216 132 -301 41 -85 73 -155 72 -157 -10 -9 -160 -86 -162 -83 -2 2 -49 120
-105 262 l-102 258 40 47 40 47 -30 31 -31 32 23 5 c64 12 60 16 123 -141z
m1077 116 l31 -23 -7 -90 c-4 -49 -15 -157 -26 -240 -10 -82 -19 -166 -19
-186 0 -26 -8 -43 -30 -64 -16 -16 -30 -26 -30 -24 0 3 -18 52 -39 109 l-39
103 38 51 c21 28 43 61 49 74 11 21 10 22 -21 23 l-33 1 27 11 c28 11 33 35
54 220 4 31 9 57 11 57 2 0 18 -10 34 -22z m9359 -13 c0 -3 18 -83 39 -178 67
-291 117 -426 206 -546 l45 -61 -118 0 -117 0 -89 213 c-94 223 -180 463 -192
535 l-7 42 117 0 c64 0 116 -2 116 -5z m-19412 -26 c201 -22 456 -94 645 -182
l92 -43 14 -55 c12 -47 98 -316 115 -359 5 -11 -8 -26 -38 -47 l-45 -32 -248
186 c-432 323 -497 359 -628 351 -88 -6 -153 -38 -218 -107 -27 -29 -60 -77
-75 -109 -52 -113 -37 -311 40 -537 31 -92 106 -251 114 -243 2 3 -12 60 -31
128 -100 349 -85 588 44 685 38 29 140 27 201 -4 134 -69 438 -273 612 -410
l98 -76 -6 -50 c-29 -224 22 -392 156 -518 92 -88 213 -151 338 -178 l51 -10
-86 -107 c-114 -140 -228 -316 -295 -453 l-53 -110 -95 5 c-56 3 -132 15 -185
30 -49 13 -92 23 -94 21 -2 -2 7 -20 19 -39 40 -65 156 -145 243 -167 26 -6
47 -12 47 -13 0 0 -11 -37 -24 -81 -28 -98 -32 -99 -168 -52 -227 79 -428 256
-623 547 -218 326 -374 720 -464 1170 -62 315 -76 466 -51 572 28 119 95 214
180 258 74 38 238 49 418 29z m12871 -265 c2 -57 -29 -123 -86 -185 -44 -47
-77 -70 -157 -110 -166 -82 -288 -96 -468 -52 l-70 17 6 44 c3 25 6 57 6 71 0
49 10 52 80 30 93 -30 273 -37 372 -15 120 27 186 79 269 215 28 46 34 51 40
35 4 -10 8 -33 8 -50z m-840 -26 l21 -63 -32 -28 c-52 -44 -67 -50 -74 -32
-13 34 3 114 30 150 15 19 29 35 31 35 2 0 13 -28 24 -62z m701 52 c0 -20 -48
-105 -72 -128 -14 -12 -39 -27 -56 -31 l-32 -10 19 37 c29 55 67 103 98 124
32 20 43 23 43 8z m-3953 -42 c11 -24 64 -119 117 -211 53 -92 96 -170 96
-173 0 -12 -83 -144 -90 -144 -14 0 -296 527 -288 536 4 3 96 25 139 33 3 1
14 -18 26 -41z m12136 -179 c23 -6 47 -13 52 -14 10 -2 67 -176 61 -182 -7 -7
-155 50 -188 72 -34 23 -38 30 -38 68 0 23 3 59 6 79 l7 38 29 -25 c16 -13 48
-30 71 -36z m-12776 -57 c19 -11 21 -22 27 -154 3 -79 8 -271 10 -428 l5 -285
-134 0 c-116 0 -134 2 -129 15 16 41 24 142 25 305 0 99 4 214 8 255 8 76 50
364 57 389 3 9 22 -3 57 -36 29 -28 62 -55 74 -61z m1208 -114 c33 -90 101
-212 135 -243 l21 -19 33 38 32 39 47 -27 46 -27 63 19 c35 11 97 25 138 32
41 6 84 14 94 17 18 5 19 0 13 -113 -4 -86 -15 -158 -40 -259 -19 -77 -40
-167 -47 -200 -15 -75 -37 -118 -90 -175 l-42 -45 33 -27 c18 -16 37 -28 41
-28 4 0 -11 -34 -34 -76 -22 -41 -38 -78 -35 -81 11 -10 74 37 101 75 42 60
63 136 86 302 12 85 23 157 26 159 8 8 4 -93 -6 -179 -14 -108 -53 -260 -85
-326 -36 -74 -75 -87 -129 -43 -6 5 -49 39 -96 76 -159 125 -368 342 -521 537
l-54 70 55 -37 c29 -20 55 -35 57 -33 2 1 -8 35 -21 74 -14 40 -22 72 -19 72
11 0 118 -95 248 -221 71 -69 154 -144 184 -168 62 -48 60 -49 115 43 68 114
100 238 87 341 l-7 50 -31 -60 c-16 -33 -50 -111 -74 -172 -23 -62 -46 -113
-49 -113 -12 0 -520 532 -520 544 0 17 97 66 129 66 32 1 39 6 64 46 31 52 34
74 10 75 -83 6 -143 -38 -237 -173 -66 -94 -156 -168 -156 -128 0 28 55 148
90 199 72 103 193 179 285 180 29 1 31 -3 60 -81z m761 -50 c-31 -25 -132 -64
-204 -78 -68 -14 -199 -9 -244 9 -27 10 -28 14 -28 79 l0 69 63 -13 c128 -28
294 -12 387 36 l35 18 6 -51 c5 -45 3 -54 -15 -69z m-1676 -143 c11 -132 32
-332 46 -444 14 -112 23 -205 21 -207 -2 -2 -28 6 -58 19 -30 13 -87 32 -127
42 -56 13 -72 21 -68 32 3 8 6 150 6 314 0 291 10 376 24 207 4 -46 13 -112
19 -148 l13 -65 21 90 c12 50 31 153 42 230 23 152 32 196 37 180 2 -5 12
-118 24 -250z m8222 90 l38 -6 -30 -59 c-33 -65 -72 -96 -218 -169 -166 -83
-311 -117 -471 -108 -105 5 -231 37 -231 58 0 11 35 83 57 116 l15 22 47 -24
c79 -40 166 -57 281 -57 58 0 129 5 159 11 71 14 144 69 211 160 45 61 56 70
79 66 14 -2 43 -7 63 -10z m3178 -29 c0 -2 -25 -21 -56 -42 -53 -37 -63 -40
-163 -49 l-106 -10 28 -19 c35 -24 101 -31 152 -17 22 6 90 40 150 76 61 35
114 65 119 65 5 0 -24 -35 -65 -77 -83 -86 -145 -163 -132 -163 16 0 109 59
188 118 44 33 82 59 84 57 2 -2 -8 -24 -22 -48 -71 -120 -238 -203 -394 -195
l-58 3 -16 65 c-9 36 -32 92 -52 123 -25 39 -33 59 -25 62 7 2 81 13 163 24
157 21 198 27 203 30 1 0 2 -1 2 -3z m-18844 -178 c37 -90 112 -252 166 -360
53 -109 92 -198 86 -198 -24 0 -197 90 -251 131 -71 53 -138 139 -168 217 -30
79 -31 199 -3 262 19 41 78 110 94 110 4 0 38 -73 76 -162z m11267 73 c45 -50
52 -64 120 -234 67 -165 109 -243 186 -340 65 -82 136 -145 230 -205 77 -50
141 -75 291 -113 147 -38 198 -64 227 -115 13 -21 23 -44 23 -50 0 -15 -218
18 -333 51 -166 47 -264 111 -432 280 -233 236 -346 451 -399 763 l-6 32 28
-14 c16 -8 45 -33 65 -55z m-422 10 c-26 -36 -66 -66 -171 -127 -64 -37 -116
-80 -210 -173 -69 -68 -140 -138 -158 -154 l-34 -31 16 38 c67 161 256 354
411 421 43 19 145 54 158 54 5 1 -1 -12 -12 -28z m4928 -116 c57 -146 57 -150
20 -244 -17 -45 -35 -81 -39 -81 -13 0 -89 176 -104 240 -17 71 -12 89 37 162
21 31 34 43 39 35 4 -7 25 -57 47 -112z m-4846 27 l27 -29 -61 -17 c-83 -23
-165 -65 -289 -150 -58 -40 -110 -75 -116 -79 -7 -4 -14 1 -17 13 -4 14 17 37
87 98 128 111 188 152 254 173 76 24 84 24 115 -9z m4659 -109 c32 -72 93
-252 87 -257 -2 -2 -53 -22 -114 -44 -103 -38 -110 -42 -108 -66 2 -25 0 -26
-65 -27 -37 0 -97 -8 -135 -18 l-67 -17 -10 35 c-6 20 -27 99 -49 176 l-38
140 91 28 c50 15 152 48 226 72 74 23 139 43 143 44 5 1 22 -29 39 -66z m6594
-18 c43 -25 46 -32 69 -151 6 -30 4 -32 -32 -38 -21 -3 -56 -6 -79 -6 l-41 0
-12 93 c-6 50 -14 107 -17 125 l-5 33 38 -16 c21 -9 57 -27 79 -40z m-168 18
c-3 -27 -5 -28 -148 -55 -80 -15 -157 -29 -171 -32 -24 -5 -28 -1 -34 30 -3
20 -4 38 -1 41 5 6 269 39 324 42 31 1 33 -1 30 -26z m-10992 -7 c24 -20 28
-32 32 -91 15 -226 -147 -447 -390 -532 -93 -33 -248 -39 -290 -11 -34 22 -52
78 -44 132 21 131 228 352 442 472 79 44 105 52 171 53 41 1 58 -4 79 -23z
m4012 -62 c2 -1 23 -78 46 -171 24 -92 46 -178 50 -190 l7 -22 -73 20 c-165
45 -163 44 -190 107 -14 31 -37 98 -51 148 -15 50 -29 99 -33 108 -6 14 6 15
117 10 68 -4 126 -8 127 -10z m5510 -192 c35 -13 61 -26 59 -29 -6 -5 -419
-84 -427 -81 -4 2 -3 17 2 34 6 24 21 38 68 63 105 56 182 60 298 13z m-10148
-1 c0 -43 -66 -151 -92 -151 -13 0 -9 47 6 84 18 44 86 97 86 67z m7574 -478
c-8 -56 -4 -49 -31 -57 -15 -5 -23 -3 -23 5 0 14 48 99 56 99 3 0 2 -21 -2
-47z m-5441 -60 c21 -20 23 -69 1 -77 -27 -10 -51 -7 -74 12 -25 21 -30 69 -9
83 18 12 59 2 82 -18z m3902 -66 c87 -66 206 -169 201 -174 -5 -5 -449 -92
-453 -88 -2 1 9 42 23 91 28 96 50 138 103 197 38 42 35 43 126 -26z m-742
-72 c100 -26 172 -86 222 -186 19 -36 22 -51 13 -54 -7 -2 -530 -101 -1163
-220 -632 -119 -1161 -219 -1174 -222 -22 -5 -23 -4 -16 28 20 96 75 166 160
205 113 52 624 194 1190 331 586 142 643 151 768 118z m-9290 -80 c45 -30 93
-55 107 -55 14 0 171 18 350 40 178 21 324 38 325 37 0 -1 -1 -37 -3 -79 l-4
-78 -29 0 c-16 0 -171 -7 -345 -16 -174 -8 -326 -13 -338 -10 -11 3 -56 39
-99 79 l-78 72 13 33 c7 17 14 32 15 32 2 0 40 -25 86 -55z m14117 -100 c111
-72 164 -136 271 -329 89 -160 184 -222 331 -214 94 6 160 36 304 138 115 82
100 89 158 -77 47 -137 67 -248 65 -358 l-3 -91 43 -58 c23 -31 48 -72 56 -89
19 -47 82 -443 72 -454 -3 -2 -8 13 -12 34 -22 123 -127 298 -249 417 -144
141 -262 196 -443 204 -94 4 -122 1 -181 -17 -215 -65 -394 -333 -344 -515 10
-36 9 -41 -21 -77 -18 -21 -36 -39 -42 -39 -13 0 -285 195 -407 292 l-97 78
-27 85 c-32 102 -46 116 -159 150 l-82 25 29 58 c20 42 31 83 39 157 l11 99
115 166 c141 201 223 308 326 422 l78 88 52 -26 c29 -15 81 -46 117 -69z
m-12631 -201 c19 -59 19 -68 6 -92 -33 -62 -35 -60 -35 51 0 59 2 107 5 107 2
0 13 -30 24 -66z m-1061 -110 l-3 -136 -123 -44 -123 -44 5 43 c3 23 11 99 17
169 l12 127 51 5 c65 8 115 12 144 14 l23 2 -3 -136z m702 117 c6 -12 10 -121
10 -285 l0 -266 -25 0 -25 0 0 240 c0 208 -2 241 -16 247 -19 7 -125 -14 -139
-28 -6 -6 -11 -101 -13 -249 l-3 -240 -25 0 -24 0 0 255 0 255 28 30 c21 24
41 33 97 44 100 20 123 19 135 -3z m5173 -172 c53 -6 123 -17 155 -25 118 -29
365 -173 322 -188 -8 -2 -234 -46 -503 -96 -469 -88 -489 -91 -545 -79 -88 19
-261 14 -382 -11 -114 -23 -132 -35 -123 -81 3 -16 2 -29 -3 -29 -5 0 -103
-18 -219 -40 -115 -22 -211 -40 -212 -40 -2 0 -3 11 -3 24 0 13 -9 45 -21 71
-16 37 -20 62 -17 108 4 56 8 63 46 98 28 24 42 45 42 61 0 31 41 69 107 101
l51 24 19 -25 19 -26 -4 37 c-2 20 -1 37 4 37 4 0 116 18 248 40 133 22 286
44 341 49 120 10 541 4 678 -10z m-4836 -136 c-15 -16 -17 -16 -17 -1 0 9 6
18 13 21 20 7 22 -2 4 -20z m2709 -63 c206 -52 453 -213 500 -325 25 -61 22
-65 -56 -65 -38 0 -70 2 -70 5 0 2 7 23 16 45 17 41 17 41 -12 71 -40 42 -176
132 -249 164 -33 14 -91 35 -130 46 -71 20 -245 38 -245 25 0 -4 11 -29 25
-56 29 -56 53 -75 221 -161 96 -50 216 -94 307 -114 20 -4 29 -13 33 -35 4
-16 14 -30 23 -32 9 -2 -15 -9 -54 -16 -59 -11 -81 -11 -143 3 -127 26 -164
17 -86 -23 l34 -17 -215 -41 c-186 -35 -218 -39 -235 -27 -19 13 -19 14 0 46
11 18 20 47 20 65 0 33 -30 103 -58 135 -20 23 -6 23 82 -3 38 -11 72 -17 75
-15 3 3 -26 37 -65 76 -38 39 -64 70 -59 68 6 -3 62 -31 125 -63 128 -66 196
-91 267 -101 66 -10 49 4 -67 55 -137 60 -209 98 -254 133 -42 34 -96 102 -96
123 0 7 28 22 63 33 83 27 200 27 303 1z m-3556 -50 l45 -18 -2 -64 c-3 -111
-9 -126 -51 -138 -21 -5 -165 -50 -321 -99 l-284 -89 -66 47 c-71 51 -72 53
-83 179 -3 34 -1 52 6 52 6 0 146 42 311 94 l300 93 50 -19 c28 -11 70 -28 95
-38z m8180 14 c0 -3 -13 -36 -30 -74 -19 -44 -30 -85 -30 -116 0 -42 4 -51 38
-83 82 -78 279 -155 427 -168 94 -8 157 11 313 94 68 35 126 63 128 60 2 -2
-10 -40 -26 -86 -41 -111 -40 -157 5 -213 86 -106 86 -108 142 -356 29 -131
53 -239 53 -242 0 -3 -58 -5 -130 -5 l-129 0 -134 -68 c-235 -120 -379 -225
-453 -332 -37 -54 -39 -62 -39 -129 1 -57 6 -81 28 -123 15 -29 23 -54 19 -56
-4 -3 -75 -19 -158 -37 l-152 -31 -51 25 c-70 36 -140 50 -186 37 -33 -9 -37
-8 -45 14 -20 52 -65 107 -119 143 l-56 37 18 50 c10 28 21 83 24 123 5 65 8
73 29 78 35 9 99 -17 188 -75 98 -64 167 -85 255 -79 162 12 269 115 339 326
21 65 25 97 26 202 1 144 -6 170 -89 345 -100 209 -169 265 -324 265 -214 -1
-376 -78 -447 -214 -26 -49 -34 -57 -84 -76 l-55 -20 -53 57 c-86 95 -105 161
-66 233 41 78 17 207 -53 282 -24 25 -24 27 -7 36 107 56 884 211 884 176z
m-6987 -389 c94 -18 93 -17 100 -52 4 -16 18 -67 31 -115 l25 -88 -127 0 -127
0 0 135 c0 83 4 135 10 135 6 0 45 -7 88 -15z m3932 -26 c33 -6 77 -15 98 -20
37 -10 37 -10 23 -38 -19 -35 -42 -50 -139 -91 -73 -30 -82 -38 -150 -121
l-72 -89 -9 33 c-5 20 -4 75 3 142 6 61 8 132 5 159 l-7 48 94 -6 c52 -4 121
-12 154 -17z m1356 -146 c13 -21 50 -66 82 -100 53 -55 60 -68 65 -111 3 -31
-3 -74 -17 -123 -35 -126 -32 -144 50 -229 65 -68 113 -150 144 -244 l28 -86
-31 -70 c-47 -103 -50 -136 -17 -201 15 -29 39 -71 52 -92 29 -45 19 -41 -57
23 -87 74 -149 110 -192 110 -89 0 -337 -63 -353 -91 -10 -15 -84 -10 -173 11
-164 39 -442 172 -508 242 -46 48 -99 117 -93 121 2 1 34 17 71 35 37 19 95
59 130 91 35 32 98 81 141 110 282 189 520 448 613 668 l29 67 7 -47 c3 -26
17 -64 29 -84z m-5149 -160 c24 -22 24 -69 -2 -83 -39 -21 -81 55 -48 88 16
16 28 15 50 -5z m-199 -88 l85 7 14 -48 c8 -27 14 -50 13 -52 -3 -4 -325 -70
-325 -66 0 1 22 32 49 68 27 36 52 75 56 87 5 15 10 18 15 9 5 -9 29 -10 93
-5z m-2050 -347 l5 -56 -53 -26 c-119 -59 -242 -179 -305 -300 -14 -26 -34
-49 -45 -51 -27 -6 -288 -35 -315 -35 -14 0 7 19 62 56 198 135 364 273 528
438 l105 106 6 -37 c4 -21 9 -64 12 -95z m1776 -324 c1 -9 -76 -26 -86 -19 -2
1 10 25 25 53 l27 52 17 -38 c9 -20 17 -42 17 -48z m-1308 50 c173 -30 371
-110 583 -236 179 -107 254 -215 226 -326 -16 -66 -35 -91 -88 -115 -68 -30
-191 -27 -428 12 -285 46 -404 41 -540 -26 -61 -30 -144 -112 -144 -142 0 -20
0 -20 45 0 59 26 102 22 128 -13 29 -38 36 -154 37 -576 l0 -354 -52 7 c-166
23 -281 109 -340 255 -20 49 -22 73 -22 205 0 158 13 255 60 443 l25 102 -34
43 c-148 182 -144 418 11 589 118 131 290 173 533 132z m-1545 -864 c21 -477
21 -486 47 -552 15 -38 26 -68 24 -68 -76 -15 -2943 -507 -2944 -506 -1 0 -7
39 -13 86 -28 205 -125 500 -252 770 -32 69 -55 126 -50 128 5 1 39 23 76 47
73 50 178 105 198 105 9 0 70 -172 167 -470 138 -419 157 -470 175 -470 29 0
2256 406 2262 412 2 3 -5 213 -16 468 -11 255 -17 467 -13 470 20 18 261 71
303 66 13 -1 18 -73 36 -486z m2550 114 c65 -79 104 -218 84 -296 -16 -58 -44
-73 -197 -102 -342 -65 -526 -61 -737 15 -121 43 -154 87 -143 185 6 56 47
110 101 135 54 24 141 24 280 -1 140 -26 226 -25 309 0 60 19 163 83 196 123
12 16 15 16 43 -1 17 -9 45 -35 64 -58z m-3843 -304 c87 -13 166 -41 230 -82
64 -40 169 -139 207 -193 l28 -40 -307 -54 c-168 -29 -493 -88 -721 -132 -228
-43 -416 -76 -419 -74 -2 2 4 34 13 70 69 275 260 446 559 500 86 16 316 18
410 5z m3987 -194 c17 -21 40 -114 40 -163 0 -71 -21 -85 -210 -138 -198 -55
-278 -68 -379 -63 -168 8 -293 116 -308 265 -6 51 -5 55 13 50 52 -15 272 -29
388 -24 138 5 244 23 360 62 88 29 81 28 96 11z m-8659 -198 c58 -27 112 -75
135 -120 38 -73 28 -192 -41 -492 -61 -265 -69 -331 -62 -515 9 -252 65 -467
164 -637 62 -106 186 -230 273 -272 181 -88 378 -82 568 17 42 22 77 39 78 38
2 -1 -4 -47 -13 -102 -14 -95 -13 -211 3 -307 l6 -36 -93 -62 c-123 -80 -337
-185 -419 -206 -39 -10 -103 -17 -160 -16 -299 1 -624 163 -901 450 -244 252
-380 543 -412 885 -39 422 132 952 396 1225 77 79 137 122 225 159 75 31 173
28 253 -9z m8738 -223 c39 -33 66 -102 53 -135 -14 -37 -41 -57 -114 -84 -152
-57 -329 -71 -421 -31 -60 25 -127 92 -127 126 0 42 30 55 155 68 131 14 232
34 306 60 75 27 112 26 148 -4z m-1592 -331 c74 -20 69 -6 78 -229 17 -448 47
-950 61 -1025 33 -183 126 -314 257 -361 20 -7 37 -16 37 -19 0 -3 -37 -18
-81 -32 l-81 -27 -81 85 c-203 215 -533 426 -844 540 -80 29 -100 40 -96 53 4
9 23 57 44 106 21 50 52 137 68 195 17 58 54 170 82 250 71 201 78 230 85 356
l7 111 96 6 c53 4 125 15 161 25 62 17 67 17 105 1 22 -10 68 -25 102 -35z
m-4148 -299 c256 -61 505 -359 634 -760 56 -173 80 -305 68 -371 -15 -77 -43
-135 -81 -168 -29 -24 -40 -27 -73 -22 -92 15 -154 66 -322 265 -184 219 -276
301 -337 301 -37 0 -96 -25 -126 -53 -53 -49 -120 -221 -146 -377 -8 -52 -22
-187 -31 -300 -18 -230 -33 -328 -65 -413 -49 -131 -155 -189 -256 -141 -47
22 -129 115 -164 185 -33 64 -64 170 -80 269 -39 252 -56 766 -31 935 45 302
187 501 421 588 173 65 451 94 589 62z m-1066 -385 c-1 -8 -11 -46 -22 -85
-38 -127 -52 -236 -58 -435 -8 -299 29 -581 122 -939 19 -74 35 -143 35 -153
0 -31 -42 -43 -80 -23 -65 33 -113 96 -169 221 -221 489 -239 898 -54 1213 52
88 179 223 207 219 12 -2 20 -10 19 -18z m-440 -762 c7 -258 48 -418 168 -667
61 -128 65 -152 28 -172 -31 -16 -53 -3 -121 70 -73 78 -140 200 -189 341 -30
86 -33 105 -32 205 1 124 21 215 73 333 23 49 38 72 50 72 16 0 18 -18 23
-182z m6767 -309 c165 -26 271 -120 213 -187 -22 -25 -178 -85 -202 -77 -9 3
-39 27 -67 53 -85 81 -200 121 -354 123 -74 1 -75 1 -42 15 56 25 203 64 272
73 93 12 107 12 180 0z m-465 -149 c82 -12 191 -61 252 -114 55 -48 123 -151
123 -186 0 -16 -11 -42 -25 -58 -39 -47 -288 -169 -312 -154 -5 4 -15 29 -22
56 -7 27 -23 69 -37 92 -40 67 -150 165 -241 212 -82 42 -98 60 -88 93 7 22
81 46 177 58 89 12 95 12 173 1z m-391 -256 c82 -20 152 -63 220 -133 90 -95
132 -215 88 -254 -30 -27 -182 -94 -275 -121 -220 -64 -335 -76 -784 -83 -358
-5 -373 -5 -379 13 -24 78 -75 144 -136 175 -43 22 -46 19 -19 -19 29 -41 51
-129 51 -203 l0 -67 -54 -50 c-70 -63 -124 -94 -222 -129 -69 -24 -94 -27
-204 -27 -104 -1 -138 3 -200 22 -200 63 -375 210 -399 336 -36 192 157 412
372 424 90 6 137 -8 297 -83 74 -35 153 -68 175 -74 63 -17 142 -13 250 13 98
24 172 48 490 161 337 119 537 146 729 99z m-2814 -341 c120 -33 276 -141 330
-229 46 -74 23 -207 -54 -311 -108 -147 -401 -303 -568 -303 -102 0 -217 46
-290 118 -48 46 -48 47 -48 112 0 36 7 103 15 149 8 47 13 86 11 88 -7 7 -76
-94 -101 -148 -13 -30 -32 -84 -42 -121 l-17 -67 -136 -52 c-438 -167 -796
-259 -1008 -259 -160 0 -228 55 -254 208 -15 86 -4 141 43 214 61 95 151 157
275 188 211 55 295 62 714 67 433 4 439 5 530 67 25 16 91 74 148 128 182 173
268 202 452 151z m-2355 -278 c66 -8 123 -15 128 -15 4 0 7 -6 7 -13 0 -9 -36
-23 -100 -40 -216 -57 -359 -133 -463 -249 l-64 -70 -66 0 c-102 1 -227 65
-227 117 0 59 308 233 475 269 92 19 165 19 310 1z m305 -98 c0 -7 -23 -35
-50 -62 -101 -100 -168 -231 -177 -350 -9 -120 -32 -141 -141 -125 -188 27
-322 109 -322 198 0 30 8 44 53 87 83 81 235 151 487 226 141 43 150 44 150
26z"/>
<path d="M27538 13893 c6 -2 18 -2 25 0 6 3 1 5 -13 5 -14 0 -19 -2 -12 -5z"/>
<path d="M27438 13883 c6 -2 18 -2 25 0 6 3 1 5 -13 5 -14 0 -19 -2 -12 -5z"/>
<path d="M7715 12680 c-15 -17 -17 -31 -12 -87 9 -97 25 -110 163 -133 222
-38 363 -107 498 -242 99 -100 105 -94 41 37 -80 165 -265 306 -534 410 -104
40 -131 43 -156 15z"/>
<path d="M6515 12382 c-57 -41 -167 -163 -220 -243 -88 -131 -155 -298 -180
-446 -4 -25 -3 -43 3 -43 5 0 14 19 21 43 53 176 212 351 421 461 103 54 110
67 92 155 -20 94 -71 121 -137 73z"/>
<path d="M7615 11416 c-62 -29 -86 -55 -122 -131 -26 -57 -28 -67 -27 -195 0
-108 5 -151 22 -214 29 -101 64 -173 113 -236 45 -57 54 -50 -86 -70 -73 -11
-186 -33 -226 -45 -14 -5 -13 2 5 52 30 86 29 286 -2 403 -32 118 -63 181
-117 239 -78 83 -159 109 -256 80 -98 -30 -168 -141 -176 -281 -7 -106 11
-239 44 -331 29 -84 100 -196 146 -231 23 -19 28 -26 17 -30 -8 -3 -69 -24
-135 -47 -276 -94 -619 -241 -956 -409 -212 -106 -541 -281 -537 -286 2 -1
103 37 225 86 908 362 1630 552 2463 650 602 70 959 94 1316 88 271 -4 267 1
-45 46 -323 48 -466 58 -897 63 l-412 5 24 52 c92 202 29 557 -123 697 -81 73
-166 88 -258 45z m221 -75 c142 -64 127 -266 -24 -311 -159 -48 -281 162 -160
277 57 53 117 65 184 34z m-720 -137 c95 -45 120 -172 50 -252 -97 -111 -269
-63 -293 82 -10 65 33 146 91 172 42 18 111 17 152 -2z"/>
<path d="M7730 9515 c-151 -31 -306 -107 -453 -221 -54 -42 -97 -78 -95 -80 2
-2 110 30 239 72 128 41 243 73 254 72 27 -4 36 -24 114 -268 l69 -215 1 251
c1 194 4 254 15 269 12 16 44 20 282 36 148 10 278 20 289 22 25 4 -92 32
-242 57 -135 23 -371 26 -473 5z"/>
<path d="M10268 9433 c-239 -311 -586 -617 -908 -801 -192 -110 -629 -284
-970 -386 -654 -197 -1179 -236 -1817 -135 -401 63 -761 170 -1059 314 l-152
73 -6 -46 c-9 -65 -7 -150 5 -260 41 -379 220 -733 529 -1043 291 -292 584
-458 996 -564 247 -64 382 -79 704 -79 304 0 412 10 670 60 618 122 1145 391
1546 789 136 136 220 239 306 378 297 477 406 1231 253 1745 -9 28 -17 52 -19
52 -1 0 -37 -44 -78 -97z m14 -538 c1 -265 -26 -451 -94 -660 l-23 -70 -104
-73 c-612 -427 -1501 -746 -2366 -849 -213 -25 -713 -25 -910 0 -284 37 -533
96 -767 182 -175 64 -205 85 -266 186 -69 115 -113 207 -156 322 -31 83 -86
267 -86 289 0 4 55 -20 123 -52 619 -294 1404 -380 2295 -249 707 103 1349
368 1843 760 134 106 335 308 424 427 l70 92 8 -47 c5 -27 9 -142 9 -258z
m-226 -974 c-88 -173 -258 -389 -423 -537 -179 -161 -338 -267 -568 -379 -594
-289 -1270 -393 -1949 -299 -374 52 -721 214 -1001 467 l-60 55 125 -34 c336
-92 550 -119 965 -119 322 0 395 5 685 46 784 111 1558 400 2150 803 52 36 98
65 103 65 4 1 -8 -30 -27 -68z"/>
<path d="M11518 8266 l-288 -81 0 -68 c0 -60 2 -68 18 -63 9 3 137 42 284 87
l268 82 6 36 c3 20 8 48 10 64 3 15 2 27 -3 26 -4 -1 -137 -38 -295 -83z"/>
<path d="M18410 4617 c-67 -16 -106 -36 -143 -74 -38 -41 -47 -80 -47 -209 0
-134 20 -254 62 -383 53 -158 118 -208 261 -199 56 4 86 12 126 33 108 59 123
107 95 295 -19 121 -19 122 -44 116 -14 -2 -65 -10 -113 -17 -94 -13 -94 -13
-81 -78 7 -31 8 -32 53 -29 l46 2 7 -64 c9 -79 -3 -108 -55 -133 -75 -37 -117
3 -167 160 -40 126 -57 265 -42 362 13 88 32 113 86 113 37 0 106 -41 106 -64
0 -7 19 -8 58 -4 94 12 95 12 76 49 -27 52 -63 96 -94 112 -41 21 -126 26
-190 12z"/>
<path d="M17833 4513 c-18 -2 -33 -6 -33 -8 0 -2 13 -87 29 -187 37 -229 41
-258 36 -258 -2 0 -59 93 -127 206 l-123 206 -58 -6 c-32 -3 -64 -9 -71 -13
-10 -6 -4 -65 30 -273 24 -146 53 -330 64 -410 12 -80 23 -150 25 -156 2 -8
23 -8 71 -2 38 5 70 11 72 13 2 2 -10 88 -26 192 -40 248 -41 256 -28 243 6
-6 61 -97 122 -203 l111 -192 73 3 c41 1 75 4 77 5 1 2 -24 169 -57 373 -32
203 -62 393 -66 422 l-7 52 -41 -2 c-22 0 -56 -3 -73 -5z"/>
<path d="M17121 4409 c-24 -5 -45 -10 -47 -12 -3 -2 16 -127 40 -278 25 -151
55 -341 68 -422 l23 -149 55 7 c30 3 63 8 73 11 20 6 24 -30 -39 364 -25 151
-52 323 -61 383 -19 120 -13 116 -112 96z"/>
<path d="M16570 4314 c-44 -8 -174 -35 -191 -40 -15 -4 -15 -11 -3 -76 8 -39
36 -214 64 -387 64 -406 61 -391 69 -386 4 2 60 11 125 19 139 18 177 28 231
59 58 33 70 64 70 182 0 90 -3 105 -28 155 -16 30 -39 66 -52 80 -24 25 -24
26 -9 75 23 75 14 180 -20 239 -38 66 -64 79 -154 82 -43 1 -88 0 -102 -2z
m124 -141 c10 -21 21 -65 23 -99 5 -56 4 -62 -21 -81 -24 -19 -121 -41 -131
-31 -3 2 -13 56 -23 119 -13 80 -15 116 -8 121 6 4 41 8 77 8 l65 0 18 -37z
m44 -323 c29 -32 52 -115 52 -191 0 -67 -1 -70 -27 -80 -47 -18 -123 -33 -129
-26 -6 6 -54 266 -54 294 0 12 32 18 102 21 26 2 43 -4 56 -18z"/>
<path d="M16028 4223 c-42 -5 -38 6 -82 -181 -13 -57 -26 -106 -29 -108 -5 -5
-72 95 -130 192 l-28 47 -72 -7 c-39 -4 -72 -8 -74 -9 -4 -5 127 -846 133
-855 1 -2 32 -1 68 3 66 7 66 7 66 39 0 17 -16 127 -35 245 -19 118 -33 216
-32 217 1 2 38 -57 82 -131 44 -74 80 -133 82 -132 1 1 16 66 34 145 18 78 35
139 39 135 4 -4 22 -100 39 -213 18 -113 34 -217 37 -231 l5 -26 66 14 c37 7
68 15 70 17 3 3 -20 155 -92 601 -19 121 -35 226 -35 233 0 12 -30 13 -112 5z"/>
<path d="M15288 4108 c-48 -9 -58 -14 -58 -30 0 -11 20 -144 45 -296 62 -390
63 -394 34 -421 -32 -29 -63 -36 -100 -21 -38 16 -46 32 -64 127 -11 59 -95
586 -95 597 0 1 -31 -2 -70 -7 -52 -7 -70 -14 -70 -25 0 -21 89 -576 100 -628
30 -134 91 -184 222 -184 85 0 136 20 186 71 49 51 57 90 44 217 -20 179 -95
612 -107 611 -5 -1 -36 -6 -67 -11z"/>
<path d="M14323 3951 c-24 -4 -45 -10 -48 -13 -5 -5 24 -203 101 -681 l27
-169 31 5 c17 2 115 17 219 32 l187 29 0 48 c0 30 -5 50 -12 53 -7 3 -76 -6
-153 -19 -77 -13 -141 -23 -143 -21 -2 2 -28 155 -58 342 -29 186 -56 353 -59
371 -6 35 -11 36 -92 23z"/>
<path d="M13672 3850 c-51 -9 -95 -20 -98 -23 -4 -3 -1 -43 5 -89 25 -170 121
-751 125 -756 7 -6 136 19 136 27 0 3 -13 91 -29 194 -15 103 -25 189 -22 191
3 3 35 9 71 16 127 22 166 44 201 112 58 114 13 279 -92 334 -38 19 -179 17
-297 -6z m224 -112 c28 -25 48 -98 40 -142 -8 -44 -43 -71 -107 -85 -27 -6
-54 -11 -58 -11 -7 0 -46 210 -46 245 0 10 109 23 135 16 8 -2 25 -13 36 -23z"/>
</g>
</svg>
